<?xml version="1.0" encoding="UTF-8" standalone="no"?>
<svg
   xmlns:dc="http://purl.org/dc/elements/1.1/"
   xmlns:cc="http://creativecommons.org/ns#"
   xmlns:rdf="http://www.w3.org/1999/02/22-rdf-syntax-ns#"
   xmlns:svg="http://www.w3.org/2000/svg"
   xmlns="http://www.w3.org/2000/svg"
   xmlns:sodipodi="http://sodipodi.sourceforge.net/DTD/sodipodi-0.dtd"
   xmlns:inkscape="http://www.inkscape.org/namespaces/inkscape"
   width="761.27301mm"
   height="537.72589mm"
   viewBox="0 0 761.27305 537.72589"
   version="1.1"
   id="svg8"
   inkscape:version="1.0rc1 (09960d6f05, 2020-04-09)"
   sodipodi:docname="resin-printer.svg"
   inkscape:export-filename="C:\Users\sigma\OneDrive\Colin\All3DP\Anycubic Photon Workshop Tutorial How to Get Started\resin-printer-steps.png"
   inkscape:export-xdpi="300"
   inkscape:export-ydpi="300">
  <defs
     id="defs2" />
  <sodipodi:namedview
     lock-margins="true"
     id="base"
     pagecolor="#ffffff"
     bordercolor="#666666"
     borderopacity="1.0"
     inkscape:pageopacity="0.0"
     inkscape:pageshadow="2"
     inkscape:zoom="0.23273552"
     inkscape:cx="1438.6262"
     inkscape:cy="1016.1749"
     inkscape:document-units="mm"
     inkscape:current-layer="g351"
     inkscape:document-rotation="0"
     showgrid="false"
     inkscape:window-width="1366"
     inkscape:window-height="705"
     inkscape:window-x="-8"
     inkscape:window-y="-8"
     inkscape:window-maximized="1"
     inkscape:snap-global="false"
     fit-margin-top="20"
     fit-margin-left="20"
     fit-margin-right="20"
     fit-margin-bottom="20"
     showguides="true" />
  <metadata
     id="metadata5">
    <rdf:RDF>
      <cc:Work
         rdf:about="">
        <dc:format>image/svg+xml</dc:format>
        <dc:type
           rdf:resource="http://purl.org/dc/dcmitype/StillImage" />
        <dc:title />
      </cc:Work>
    </rdf:RDF>
  </metadata>
  <g
     inkscape:label="Layer 1"
     inkscape:groupmode="layer"
     id="layer1"
     transform="translate(678.15626,-232.73599)" />
  <g
     inkscape:groupmode="layer"
     id="layer2"
     inkscape:label="Layer 2"
     transform="translate(678.15626,-232.73599)">
    <g
       inkscape:export-ydpi="300"
       inkscape:export-xdpi="300"
       id="g351">
      <text
         id="text1047"
         y="746.91095"
         x="-540.76917"
         style="font-style:normal;font-weight:normal;font-size:17.192px;line-height:1.25;font-family:sans-serif;letter-spacing:0px;word-spacing:-0.0276298px;fill:#000000;fill-opacity:1;stroke:none;stroke-width:0.460497"
         xml:space="preserve"><tspan
           id="tspan1051"
           style="font-weight:bold;text-align:center;text-anchor:middle;stroke-width:0.460497"
           y="746.91095"
           x="-540.76917"
           sodipodi:role="line">Light Projector</tspan></text>
      <text
         id="text995"
         y="438.50851"
         x="-592.66412"
         style="font-style:normal;font-weight:normal;font-size:17.192px;line-height:1.25;font-family:sans-serif;letter-spacing:0px;word-spacing:0px;fill:#000000;fill-opacity:1;stroke:none;stroke-width:0.460497"
         xml:space="preserve"><tspan
           rotate="0 0 0 0 0 0 0 0 0 0 0"
           style="font-weight:bold;stroke-width:0.460497"
           y="438.50851"
           x="-592.66412"
           id="tspan993"
           sodipodi:role="line">Build Plate</tspan></text>
      <g
         id="g1144"
         transform="matrix(1.593398,0,0,1.593398,275.46654,-229.13827)">
        <path
           id="rect865"
           style="fill:#c0c0c0;fill-opacity:1;stroke:#000000;stroke-width:1.20573;stroke-miterlimit:4;stroke-dasharray:none;stroke-dashoffset:10;stroke-opacity:1"
           d="m -539.53028,566.47692 v 17.86259 c 0,7.84813 5.25737,14.16564 11.78759,14.16564 h 31.77462 c 6.53022,0 11.78758,-6.31751 11.78758,-14.16564 v -17.86259 z"
           inkscape:connector-curvature="0" />
        <path
           id="path879"
           style="fill:#c0c0c0;fill-opacity:1;stroke:#000000;stroke-width:0.837645;stroke-miterlimit:4;stroke-dasharray:none;stroke-dashoffset:10;stroke-opacity:1"
           d="m -513.29891,536.11379 h 38.1123 c 0.73957,0 1.71808,-0.0382 2.73106,-0.0283 v 4e-5 c 3.03897,0.0296 6.38449,0.49387 4.4898,3.73669 l -10.14826,17.36913 c -1.52718,2.61384 -2.43758,5.46433 -5.46487,5.46433 h -29.72003 m 0.81722,-26.53086 -0.81722,-0.0108 m 3.61888,0.0231 -0.73185,-0.0233 h -38.1123 c -0.73955,0 -1.71808,-0.0382 -2.73106,-0.0283 v 5e-5 c -3.03895,0.0296 -6.38446,0.49386 -4.48979,3.73666 l 10.14826,17.36913 c 1.52718,2.61384 2.43757,5.46433 5.46486,5.46433 h 29.72003"
           inkscape:connector-curvature="0"
           sodipodi:nodetypes="csssssscccccssssssc" />
        <rect
           style="fill:#c0c0c0;fill-opacity:1;stroke:#000000;stroke-width:0;stroke-miterlimit:4;stroke-dasharray:none;stroke-dashoffset:10;stroke-opacity:1"
           id="rect883"
           width="12.392553"
           height="25.663321"
           x="-518.11871"
           y="536.55157"
           ry="0.097954921" />
      </g>
      <text
         xml:space="preserve"
         style="font-style:normal;font-weight:normal;font-size:17.192px;line-height:1.25;font-family:sans-serif;letter-spacing:0px;word-spacing:-0.0276298px;fill:#000000;fill-opacity:1;stroke:none;stroke-width:0.460497"
         x="-540.07245"
         y="579.49701"
         id="text999"><tspan
           id="tspan1012"
           sodipodi:role="line"
           x="-540.07245"
           y="579.49701"
           style="font-weight:bold;text-align:center;text-anchor:middle;stroke-width:0.460497">VAT with clear</tspan><tspan
           dy="-4.5093164"
           id="tspan1127"
           sodipodi:role="line"
           x="-540.07245"
           y="600.987"
           style="font-weight:bold;text-align:center;text-anchor:middle;stroke-width:0.460497">bottom</tspan></text>
      <rect
         style="opacity:0.296774;fill:#c22d41;fill-opacity:1;stroke:#000000;stroke-width:0;stroke-miterlimit:4;stroke-dasharray:none;stroke-dashoffset:10;stroke-opacity:1"
         id="rect835"
         width="223.73372"
         height="50.141083"
         x="-651.98969"
         y="503.62305"
         ry="0" />
      <path
         id="rect833"
         style="fill:none;stroke:#000000;stroke-width:6.62653;stroke-miterlimit:4;stroke-dasharray:none;stroke-dashoffset:10;stroke-opacity:1"
         d="m -429.81552,453.82882 c 5.56255,-0.006 4.22748,4.06876 4.22748,9.63131 v 80.26324 c 0,5.56255 -4.47817,10.0407 -10.04072,10.0407 H -644.6361 c -5.56255,0 -10.0407,-4.47815 -10.0407,-10.0407 v -80.26324 c 0,-5.56255 -1.29413,-10.45226 4.26842,-10.45007"
         inkscape:connector-curvature="0"
         sodipodi:nodetypes="cssssssc" />
      <text
         xml:space="preserve"
         style="font-style:normal;font-weight:normal;font-size:17.6708px;line-height:1.25;font-family:sans-serif;letter-spacing:0px;word-spacing:-0.0397593px;fill:#000000;fill-opacity:1;stroke:none;stroke-width:0.662653"
         x="-540.20911"
         y="523.10901"
         id="text1367"><tspan
           id="tspan1369"
           sodipodi:role="line"
           x="-540.20911"
           y="523.10901"
           style="font-weight:bold;font-size:17.6708px;text-align:center;text-anchor:middle;stroke-width:0.662653">Liquid</tspan><tspan
           id="tspan1131"
           dy="-3.935693"
           dx="0"
           sodipodi:role="line"
           x="-540.20911"
           y="545.19751"
           style="font-weight:bold;font-size:17.6708px;text-align:center;text-anchor:middle;stroke-width:0.662653">Resin</tspan></text>
      <g
         transform="matrix(1.593398,0,0,1.593398,275.46648,-229.13827)"
         id="g1139">
        <g
           id="g1125">
          <rect
             ry="2.742017"
             y="391.8327"
             x="-575.35864"
             height="7.7690482"
             width="127.00658"
             id="rect844"
             style="fill:#c0c0c0;fill-opacity:1;stroke:#000000;stroke-width:1.74375;stroke-miterlimit:4;stroke-dasharray:none;stroke-dashoffset:10;stroke-opacity:1" />
          <path
             inkscape:connector-curvature="0"
             d="m -490.8124,385.64507 a 10.601245,6.0055869 0 0 0 -10.47797,6.00535 10.601245,6.0055869 0 0 0 0.002,0.11755 h 21.19795 a 10.601245,6.0055869 0 0 0 0.003,-0.11755 10.601245,6.0055869 0 0 0 -10.60136,-6.00535 10.601245,6.0055869 0 0 0 -0.12339,0 z"
             style="fill:#c0c0c0;fill-opacity:1;stroke:#000000;stroke-width:1.74375;stroke-miterlimit:4;stroke-dasharray:none;stroke-dashoffset:10;stroke-opacity:1"
             id="path846" />
          <rect
             ry="0"
             y="303.0267"
             x="-495.56781"
             height="82.800812"
             width="9.7580719"
             id="rect857"
             style="fill:#c0c0c0;fill-opacity:1;stroke:#000000;stroke-width:1.21486;stroke-miterlimit:4;stroke-dasharray:none;stroke-dashoffset:10;stroke-opacity:1" />
          <path
             id="path1116"
             style="fill:#c0c0c0;fill-opacity:1;stroke:#000000;stroke-width:1.74375;stroke-miterlimit:4;stroke-dasharray:none;stroke-dashoffset:10;stroke-opacity:1"
             d="m -533.14576,385.64507 a 10.601245,6.0055869 0 0 0 -10.47797,6.00535 10.601245,6.0055869 0 0 0 0.002,0.11755 h 21.19795 a 10.601245,6.0055869 0 0 0 0.003,-0.11755 10.601245,6.0055869 0 0 0 -10.60136,-6.00535 10.601245,6.0055869 0 0 0 -0.12339,0 z"
             inkscape:connector-curvature="0" />
          <rect
             style="fill:#c0c0c0;fill-opacity:1;stroke:#000000;stroke-width:1.21486;stroke-miterlimit:4;stroke-dasharray:none;stroke-dashoffset:10;stroke-opacity:1"
             id="rect1118"
             width="9.7580719"
             height="82.800812"
             x="-537.90118"
             y="303.0267"
             ry="0" />
        </g>
      </g>
      <g
         transform="matrix(0.5794687,0,0,0.5794687,2.6510011,67.866124)"
         id="g1185">
        <path
           inkscape:connector-curvature="0"
           d="m -539.53028,566.47692 v 17.86259 c 0,7.84813 5.25737,14.16564 11.78759,14.16564 h 31.77462 c 6.53022,0 11.78758,-6.31751 11.78758,-14.16564 v -17.86259 z"
           style="fill:#c0c0c0;fill-opacity:1;stroke:#000000;stroke-width:1.20573;stroke-miterlimit:4;stroke-dasharray:none;stroke-dashoffset:10;stroke-opacity:1"
           id="path1179" />
        <path
           sodipodi:nodetypes="csssssscccccssssssc"
           inkscape:connector-curvature="0"
           d="m -513.29891,536.11379 h 38.1123 c 0.73957,0 1.71808,-0.0382 2.73106,-0.0283 v 4e-5 c 3.03897,0.0296 6.38449,0.49387 4.4898,3.73669 l -10.14826,17.36913 c -1.52718,2.61384 -2.43758,5.46433 -5.46487,5.46433 h -29.72003 m 0.81722,-26.53086 -0.81722,-0.0108 m 3.61888,0.0231 -0.73185,-0.0233 h -38.1123 c -0.73955,0 -1.71808,-0.0382 -2.73106,-0.0283 v 5e-5 c -3.03895,0.0296 -6.38446,0.49386 -4.48979,3.73666 l 10.14826,17.36913 c 1.52718,2.61384 2.43757,5.46433 5.46486,5.46433 h 29.72003"
           style="fill:#c0c0c0;fill-opacity:1;stroke:#000000;stroke-width:0.837645;stroke-miterlimit:4;stroke-dasharray:none;stroke-dashoffset:10;stroke-opacity:1"
           id="path1181" />
        <rect
           ry="0.097954921"
           y="536.55157"
           x="-518.11871"
           height="25.663321"
           width="12.392553"
           id="rect1183"
           style="fill:#c0c0c0;fill-opacity:1;stroke:#000000;stroke-width:0;stroke-miterlimit:4;stroke-dasharray:none;stroke-dashoffset:10;stroke-opacity:1" />
      </g>
      <rect
         ry="0"
         y="328.10699"
         x="-334.63568"
         height="18.234734"
         width="81.364906"
         id="rect1193"
         style="opacity:0.296774;fill:#c22d41;fill-opacity:1;stroke:#000000;stroke-width:0;stroke-miterlimit:4;stroke-dasharray:none;stroke-dashoffset:10;stroke-opacity:1" />
      <path
         sodipodi:nodetypes="cssssssc"
         inkscape:connector-curvature="0"
         d="m -253.83788,309.9984 c 2.02293,-0.002 1.5374,1.47968 1.5374,3.5026 v 29.18921 c 0,2.02293 -1.62856,3.65149 -3.65149,3.65149 h -76.00939 c -2.02292,0 -3.65149,-1.62856 -3.65149,-3.65149 V 313.501 c 0,-2.02292 -0.47063,-3.80116 1.5523,-3.80036"
         style="fill:none;stroke:#000000;stroke-width:2.40986;stroke-miterlimit:4;stroke-dasharray:none;stroke-dashoffset:10;stroke-opacity:1"
         id="path1195" />
      <g
         id="g1215"
         transform="matrix(0.5794687,0,0,0.5794687,2.6509781,111.29972)">
        <g
           id="g1213">
          <rect
             style="fill:#c0c0c0;fill-opacity:1;stroke:#000000;stroke-width:1.74375;stroke-miterlimit:4;stroke-dasharray:none;stroke-dashoffset:10;stroke-opacity:1"
             id="rect1203"
             width="127.00658"
             height="7.7690482"
             x="-575.35864"
             y="391.8327"
             ry="2.742017" />
          <path
             id="path1205"
             style="fill:#c0c0c0;fill-opacity:1;stroke:#000000;stroke-width:1.74375;stroke-miterlimit:4;stroke-dasharray:none;stroke-dashoffset:10;stroke-opacity:1"
             d="m -490.8124,385.64507 a 10.601245,6.0055869 0 0 0 -10.47797,6.00535 10.601245,6.0055869 0 0 0 0.002,0.11755 h 21.19795 a 10.601245,6.0055869 0 0 0 0.003,-0.11755 10.601245,6.0055869 0 0 0 -10.60136,-6.00535 10.601245,6.0055869 0 0 0 -0.12339,0 z"
             inkscape:connector-curvature="0" />
          <rect
             style="fill:#c0c0c0;fill-opacity:1;stroke:#000000;stroke-width:1.21486;stroke-miterlimit:4;stroke-dasharray:none;stroke-dashoffset:10;stroke-opacity:1"
             id="rect1207"
             width="9.7580719"
             height="82.800812"
             x="-495.56781"
             y="303.0267"
             ry="0" />
          <path
             inkscape:connector-curvature="0"
             d="m -533.14576,385.64507 a 10.601245,6.0055869 0 0 0 -10.47797,6.00535 10.601245,6.0055869 0 0 0 0.002,0.11755 h 21.19795 a 10.601245,6.0055869 0 0 0 0.003,-0.11755 10.601245,6.0055869 0 0 0 -10.60136,-6.00535 10.601245,6.0055869 0 0 0 -0.12339,0 z"
             style="fill:#c0c0c0;fill-opacity:1;stroke:#000000;stroke-width:1.74375;stroke-miterlimit:4;stroke-dasharray:none;stroke-dashoffset:10;stroke-opacity:1"
             id="path1209" />
          <rect
             ry="0"
             y="303.0267"
             x="-537.90118"
             height="82.800812"
             width="9.7580719"
             id="rect1211"
             style="fill:#c0c0c0;fill-opacity:1;stroke:#000000;stroke-width:1.21486;stroke-miterlimit:4;stroke-dasharray:none;stroke-dashoffset:10;stroke-opacity:1" />
        </g>
      </g>
      <g
         transform="matrix(0.51117324,0,0,0.50153119,-238.24258,104.26127)"
         id="g1255">
        <rect
           transform="matrix(0.80274393,0.5963239,-0.80274393,0.5963239,0,0)"
           style="fill:#ffffff;fill-opacity:1;stroke:#000000;stroke-width:0.540814;stroke-miterlimit:4;stroke-dasharray:none;stroke-dashoffset:10;stroke-opacity:1"
           id="rect3777"
           width="2.1559274"
           height="38.64085"
           x="396.4415"
           y="463.85052"
           ry="2.6534491" />
        <rect
           ry="2.6534491"
           y="327.64517"
           x="531.7691"
           height="38.64085"
           width="2.1559274"
           id="rect3779"
           style="fill:#ffffff;fill-opacity:1;stroke:#000000;stroke-width:0.540814;stroke-miterlimit:4;stroke-dasharray:none;stroke-dashoffset:10;stroke-opacity:1"
           transform="matrix(-0.80274393,0.5963239,0.80274393,0.5963239,0,0)" />
        <rect
           ry="2.2377319"
           y="491.37103"
           x="-110.15883"
           height="32.586971"
           width="2.4475195"
           id="rect3781"
           style="fill:#ffffff;fill-opacity:1;stroke:#000000;stroke-width:0.529167;stroke-miterlimit:4;stroke-dasharray:none;stroke-dashoffset:10;stroke-opacity:1" />
      </g>
      <text
         id="text1352"
         y="342.05991"
         x="-85.146477"
         style="font-style:normal;font-weight:normal;font-size:20.4915px;line-height:1.25;font-family:sans-serif;letter-spacing:0px;word-spacing:0px;fill:#000000;fill-opacity:1;stroke:none;stroke-width:0.512288"
         xml:space="preserve"><tspan
           style="font-weight:bold;text-align:center;text-anchor:middle;stroke-width:0.512288"
           y="342.05991"
           x="-85.146469"
           id="tspan1350"
           sodipodi:role="line">Build Plate is lowered and</tspan><tspan
           id="tspan1354"
           style="font-weight:bold;text-align:center;text-anchor:middle;stroke-width:0.512288"
           y="367.67429"
           x="-85.146477"
           sodipodi:role="line"> sliced image is projected</tspan></text>
      <text
         xml:space="preserve"
         style="font-style:normal;font-weight:normal;font-size:20.4915px;line-height:1.25;font-family:sans-serif;letter-spacing:0px;word-spacing:0px;fill:#000000;fill-opacity:1;stroke:none;stroke-width:0.512288"
         x="-85.146484"
         y="497.05737"
         id="text1360"><tspan
           sodipodi:role="line"
           x="-85.146477"
           y="497.05737"
           style="font-weight:bold;text-align:center;text-anchor:middle;stroke-width:0.512288"
           id="tspan1358">Build Plate is raised</tspan><tspan
           id="tspan2177"
           sodipodi:role="line"
           x="-85.146484"
           y="522.67175"
           style="font-weight:bold;text-align:center;text-anchor:middle;stroke-width:0.512288">incrementally</tspan></text>
      <g
         id="g1282"
         transform="matrix(0.5794687,0,0,0.5794687,2.6509961,212.85783)">
        <path
           id="path1276"
           style="fill:#c0c0c0;fill-opacity:1;stroke:#000000;stroke-width:1.20573;stroke-miterlimit:4;stroke-dasharray:none;stroke-dashoffset:10;stroke-opacity:1"
           d="m -539.53028,566.47692 v 17.86259 c 0,7.84813 5.25737,14.16564 11.78759,14.16564 h 31.77462 c 6.53022,0 11.78758,-6.31751 11.78758,-14.16564 v -17.86259 z"
           inkscape:connector-curvature="0" />
        <path
           id="path1278"
           style="fill:#c0c0c0;fill-opacity:1;stroke:#000000;stroke-width:0.837645;stroke-miterlimit:4;stroke-dasharray:none;stroke-dashoffset:10;stroke-opacity:1"
           d="m -513.29891,536.11379 h 38.1123 c 0.73957,0 1.71808,-0.0382 2.73106,-0.0283 v 4e-5 c 3.03897,0.0296 6.38449,0.49387 4.4898,3.73669 l -10.14826,17.36913 c -1.52718,2.61384 -2.43758,5.46433 -5.46487,5.46433 h -29.72003 m 0.81722,-26.53086 -0.81722,-0.0108 m 3.61888,0.0231 -0.73185,-0.0233 h -38.1123 c -0.73955,0 -1.71808,-0.0382 -2.73106,-0.0283 v 5e-5 c -3.03895,0.0296 -6.38446,0.49386 -4.48979,3.73666 l 10.14826,17.36913 c 1.52718,2.61384 2.43757,5.46433 5.46486,5.46433 h 29.72003"
           inkscape:connector-curvature="0"
           sodipodi:nodetypes="csssssscccccssssssc" />
        <rect
           style="fill:#c0c0c0;fill-opacity:1;stroke:#000000;stroke-width:0;stroke-miterlimit:4;stroke-dasharray:none;stroke-dashoffset:10;stroke-opacity:1"
           id="rect1280"
           width="12.392553"
           height="25.663321"
           x="-518.11871"
           y="536.55157"
           ry="0.097954921" />
      </g>
      <rect
         style="opacity:0.296774;fill:#c22d41;fill-opacity:1;stroke:#000000;stroke-width:0;stroke-miterlimit:4;stroke-dasharray:none;stroke-dashoffset:10;stroke-opacity:1"
         id="rect1284"
         width="81.364906"
         height="18.234734"
         x="-334.63565"
         y="483.15271"
         ry="0" />
      <path
         id="path1286"
         style="fill:none;stroke:#000000;stroke-width:2.40986;stroke-miterlimit:4;stroke-dasharray:none;stroke-dashoffset:10;stroke-opacity:1"
         d="m -253.83788,463.45678 c 2.02293,-0.002 1.5374,1.47967 1.5374,3.5026 v 29.18921 c 0,2.02293 -1.62856,3.65149 -3.65149,3.65149 h -76.00939 c -2.02292,0 -3.65149,-1.62856 -3.65149,-3.65149 v -29.18921 c 0,-2.02293 -0.47063,-3.80116 1.5523,-3.80036"
         inkscape:connector-curvature="0"
         sodipodi:nodetypes="cssssssc" />
      <g
         transform="matrix(0.5794687,0,0,0.5794687,2.6509771,262.64145)"
         id="g1300">
        <g
           id="g1298">
          <rect
             ry="2.742017"
             y="391.8327"
             x="-575.35864"
             height="7.7690482"
             width="127.00658"
             id="rect1288"
             style="fill:#c0c0c0;fill-opacity:1;stroke:#000000;stroke-width:1.74375;stroke-miterlimit:4;stroke-dasharray:none;stroke-dashoffset:10;stroke-opacity:1" />
          <path
             inkscape:connector-curvature="0"
             d="m -490.8124,385.64507 a 10.601245,6.0055869 0 0 0 -10.47797,6.00535 10.601245,6.0055869 0 0 0 0.002,0.11755 h 21.19795 a 10.601245,6.0055869 0 0 0 0.003,-0.11755 10.601245,6.0055869 0 0 0 -10.60136,-6.00535 10.601245,6.0055869 0 0 0 -0.12339,0 z"
             style="fill:#c0c0c0;fill-opacity:1;stroke:#000000;stroke-width:1.74375;stroke-miterlimit:4;stroke-dasharray:none;stroke-dashoffset:10;stroke-opacity:1"
             id="path1290" />
          <rect
             ry="0"
             y="303.0267"
             x="-495.56781"
             height="82.800812"
             width="9.7580719"
             id="rect1292"
             style="fill:#c0c0c0;fill-opacity:1;stroke:#000000;stroke-width:1.21486;stroke-miterlimit:4;stroke-dasharray:none;stroke-dashoffset:10;stroke-opacity:1" />
          <path
             id="path1294"
             style="fill:#c0c0c0;fill-opacity:1;stroke:#000000;stroke-width:1.74375;stroke-miterlimit:4;stroke-dasharray:none;stroke-dashoffset:10;stroke-opacity:1"
             d="m -533.14576,385.64507 a 10.601245,6.0055869 0 0 0 -10.47797,6.00535 10.601245,6.0055869 0 0 0 0.002,0.11755 h 21.19795 a 10.601245,6.0055869 0 0 0 0.003,-0.11755 10.601245,6.0055869 0 0 0 -10.60136,-6.00535 10.601245,6.0055869 0 0 0 -0.12339,0 z"
             inkscape:connector-curvature="0" />
          <rect
             style="fill:#c0c0c0;fill-opacity:1;stroke:#000000;stroke-width:1.21486;stroke-miterlimit:4;stroke-dasharray:none;stroke-dashoffset:10;stroke-opacity:1"
             id="rect1296"
             width="9.7580719"
             height="82.800812"
             x="-537.90118"
             y="303.0267"
             ry="0" />
        </g>
      </g>
      <g
         id="g908"
         transform="matrix(0.5794687,0,0,0.5794687,2.6510011,369.49128)">
        <path
           id="path902"
           style="fill:#c0c0c0;fill-opacity:1;stroke:#000000;stroke-width:1.20573;stroke-miterlimit:4;stroke-dasharray:none;stroke-dashoffset:10;stroke-opacity:1"
           d="m -539.53028,566.47692 v 17.86259 c 0,7.84813 5.25737,14.16564 11.78759,14.16564 h 31.77462 c 6.53022,0 11.78758,-6.31751 11.78758,-14.16564 v -17.86259 z"
           inkscape:connector-curvature="0" />
        <path
           id="path904"
           style="fill:#c0c0c0;fill-opacity:1;stroke:#000000;stroke-width:0.837645;stroke-miterlimit:4;stroke-dasharray:none;stroke-dashoffset:10;stroke-opacity:1"
           d="m -513.29891,536.11379 h 38.1123 c 0.73957,0 1.71808,-0.0382 2.73106,-0.0283 v 4e-5 c 3.03897,0.0296 6.38449,0.49387 4.4898,3.73669 l -10.14826,17.36913 c -1.52718,2.61384 -2.43758,5.46433 -5.46487,5.46433 h -29.72003 m 0.81722,-26.53086 -0.81722,-0.0108 m 3.61888,0.0231 -0.73185,-0.0233 h -38.1123 c -0.73955,0 -1.71808,-0.0382 -2.73106,-0.0283 v 5e-5 c -3.03895,0.0296 -6.38446,0.49386 -4.48979,3.73666 l 10.14826,17.36913 c 1.52718,2.61384 2.43757,5.46433 5.46486,5.46433 h 29.72003"
           inkscape:connector-curvature="0"
           sodipodi:nodetypes="csssssscccccssssssc" />
        <rect
           style="fill:#c0c0c0;fill-opacity:1;stroke:#000000;stroke-width:0;stroke-miterlimit:4;stroke-dasharray:none;stroke-dashoffset:10;stroke-opacity:1"
           id="rect906"
           width="12.392553"
           height="25.663321"
           x="-518.11871"
           y="536.55157"
           ry="0.097954921" />
      </g>
      <rect
         style="opacity:0.296774;fill:#c22d41;fill-opacity:1;stroke:#000000;stroke-width:0;stroke-miterlimit:4;stroke-dasharray:none;stroke-dashoffset:10;stroke-opacity:1"
         id="rect910"
         width="81.364906"
         height="18.234734"
         x="-334.63568"
         y="629.73193"
         ry="0" />
      <path
         id="path912"
         style="fill:none;stroke:#000000;stroke-width:2.40986;stroke-miterlimit:4;stroke-dasharray:none;stroke-dashoffset:10;stroke-opacity:1"
         d="m -253.83788,611.62359 c 2.02293,-0.002 1.5374,1.47968 1.5374,3.5026 v 29.18921 c 0,2.02293 -1.62856,3.65149 -3.65149,3.65149 h -76.00939 c -2.02292,0 -3.65149,-1.62856 -3.65149,-3.65149 v -29.18921 c 0,-2.02292 -0.47063,-3.80116 1.5523,-3.80036"
         inkscape:connector-curvature="0"
         sodipodi:nodetypes="cssssssc" />
      <g
         transform="matrix(0.5794687,0,0,0.5794687,2.6509781,410.27905)"
         id="g926">
        <g
           id="g924">
          <rect
             ry="2.742017"
             y="391.8327"
             x="-575.35864"
             height="7.7690482"
             width="127.00658"
             id="rect914"
             style="fill:#c0c0c0;fill-opacity:1;stroke:#000000;stroke-width:1.74375;stroke-miterlimit:4;stroke-dasharray:none;stroke-dashoffset:10;stroke-opacity:1" />
          <path
             inkscape:connector-curvature="0"
             d="m -490.8124,385.64507 a 10.601245,6.0055869 0 0 0 -10.47797,6.00535 10.601245,6.0055869 0 0 0 0.002,0.11755 h 21.19795 a 10.601245,6.0055869 0 0 0 0.003,-0.11755 10.601245,6.0055869 0 0 0 -10.60136,-6.00535 10.601245,6.0055869 0 0 0 -0.12339,0 z"
             style="fill:#c0c0c0;fill-opacity:1;stroke:#000000;stroke-width:1.74375;stroke-miterlimit:4;stroke-dasharray:none;stroke-dashoffset:10;stroke-opacity:1"
             id="path916" />
          <rect
             ry="0"
             y="303.0267"
             x="-495.56781"
             height="82.800812"
             width="9.7580719"
             id="rect918"
             style="fill:#c0c0c0;fill-opacity:1;stroke:#000000;stroke-width:1.21486;stroke-miterlimit:4;stroke-dasharray:none;stroke-dashoffset:10;stroke-opacity:1" />
          <path
             id="path920"
             style="fill:#c0c0c0;fill-opacity:1;stroke:#000000;stroke-width:1.74375;stroke-miterlimit:4;stroke-dasharray:none;stroke-dashoffset:10;stroke-opacity:1"
             d="m -533.14576,385.64507 a 10.601245,6.0055869 0 0 0 -10.47797,6.00535 10.601245,6.0055869 0 0 0 0.002,0.11755 h 21.19795 a 10.601245,6.0055869 0 0 0 0.003,-0.11755 10.601245,6.0055869 0 0 0 -10.60136,-6.00535 10.601245,6.0055869 0 0 0 -0.12339,0 z"
             inkscape:connector-curvature="0" />
          <rect
             style="fill:#c0c0c0;fill-opacity:1;stroke:#000000;stroke-width:1.21486;stroke-miterlimit:4;stroke-dasharray:none;stroke-dashoffset:10;stroke-opacity:1"
             id="rect922"
             width="9.7580719"
             height="82.800812"
             x="-537.90118"
             y="303.0267"
             ry="0" />
        </g>
      </g>
      <g
         id="g934"
         transform="matrix(0.51117324,0,0,0.50153119,-238.24258,405.88645)">
        <rect
           ry="2.6534491"
           y="463.85052"
           x="396.4415"
           height="38.64085"
           width="2.1559274"
           id="rect928"
           style="fill:#ffffff;fill-opacity:1;stroke:#000000;stroke-width:0.540814;stroke-miterlimit:4;stroke-dasharray:none;stroke-dashoffset:10;stroke-opacity:1"
           transform="matrix(0.80274393,0.5963239,-0.80274393,0.5963239,0,0)" />
        <rect
           transform="matrix(-0.80274393,0.5963239,0.80274393,0.5963239,0,0)"
           style="fill:#ffffff;fill-opacity:1;stroke:#000000;stroke-width:0.540814;stroke-miterlimit:4;stroke-dasharray:none;stroke-dashoffset:10;stroke-opacity:1"
           id="rect930"
           width="2.1559274"
           height="38.64085"
           x="531.7691"
           y="327.64517"
           ry="2.6534491" />
        <rect
           style="fill:#ffffff;fill-opacity:1;stroke:#000000;stroke-width:0.529167;stroke-miterlimit:4;stroke-dasharray:none;stroke-dashoffset:10;stroke-opacity:1"
           id="rect932"
           width="2.4475195"
           height="32.586971"
           x="-110.15883"
           y="491.37103"
           ry="2.2377319" />
      </g>
      <text
         xml:space="preserve"
         style="font-style:normal;font-weight:normal;font-size:20.4915px;line-height:1.25;font-family:sans-serif;letter-spacing:0px;word-spacing:0px;fill:#000000;fill-opacity:1;stroke:none;stroke-width:0.512288"
         x="-85.146477"
         y="643.68494"
         id="text940"><tspan
           sodipodi:role="line"
           x="-85.146469"
           y="643.68494"
           style="font-weight:bold;text-align:center;text-anchor:middle;stroke-width:0.512288"
           id="tspan938">Next sliced image is</tspan><tspan
           sodipodi:role="line"
           x="-85.146477"
           y="669.29932"
           style="font-weight:bold;text-align:center;text-anchor:middle;stroke-width:0.512288"
           id="tspan944">projected</tspan></text>
    </g>
  </g>
</svg>
