<?xml version="1.0" encoding="UTF-8" standalone="no"?>
<svg
   xmlns:dc="http://purl.org/dc/elements/1.1/"
   xmlns:cc="http://creativecommons.org/ns#"
   xmlns:rdf="http://www.w3.org/1999/02/22-rdf-syntax-ns#"
   xmlns:svg="http://www.w3.org/2000/svg"
   xmlns="http://www.w3.org/2000/svg"
   xmlns:sodipodi="http://sodipodi.sourceforge.net/DTD/sodipodi-0.dtd"
   xmlns:inkscape="http://www.inkscape.org/namespaces/inkscape"
   inkscape:export-ydpi="66.582703"
   inkscape:export-xdpi="66.582703"
   inkscape:export-filename="C:\Users\sigma\OneDrive\Colin\Packt Books\3D Printing with OpenSCAD\all-metal-vs-ptfe-tube.png"
   sodipodi:docname="bowden-vs-direct.svg"
   inkscape:version="1.0rc1 (09960d6f05, 2020-04-09)"
   id="svg8"
   version="1.1"
   viewBox="0 0 514.34802 299.72211"
   height="299.72211mm"
   width="514.34802mm">
  <defs
     id="defs2">
    <marker
       inkscape:isstock="true"
       style="overflow:visible"
       id="marker1970"
       refX="0"
       refY="0"
       orient="auto"
       inkscape:stockid="Arrow1Lend">
      <path
         inkscape:connector-curvature="0"
         transform="matrix(-0.8,0,0,-0.8,-10,0)"
         style="fill:#000000;fill-opacity:1;fill-rule:evenodd;stroke:#000000;stroke-width:1pt;stroke-opacity:1"
         d="M 0,0 5,-5 -12.5,0 5,5 Z"
         id="path1968" />
    </marker>
    <marker
       inkscape:isstock="true"
       style="overflow:visible"
       id="marker1654"
       refX="0"
       refY="0"
       orient="auto"
       inkscape:stockid="Arrow1Lend">
      <path
         transform="matrix(-0.8,0,0,-0.8,-10,0)"
         style="fill:#000000;fill-opacity:1;fill-rule:evenodd;stroke:#000000;stroke-width:1pt;stroke-opacity:1"
         d="M 0,0 5,-5 -12.5,0 5,5 Z"
         id="path1652"
         inkscape:connector-curvature="0" />
    </marker>
    <marker
       inkscape:collect="always"
       inkscape:stockid="Arrow1Lend"
       orient="auto"
       refY="0"
       refX="0"
       id="marker1506"
       style="overflow:visible"
       inkscape:isstock="true">
      <path
         id="path1504"
         d="M 0,0 5,-5 -12.5,0 5,5 Z"
         style="fill:#000000;fill-opacity:1;fill-rule:evenodd;stroke:#000000;stroke-width:1pt;stroke-opacity:1"
         transform="matrix(-0.8,0,0,-0.8,-10,0)"
         inkscape:connector-curvature="0" />
    </marker>
    <marker
       inkscape:isstock="true"
       style="overflow:visible"
       id="marker1388"
       refX="0"
       refY="0"
       orient="auto"
       inkscape:stockid="Arrow1Lend">
      <path
         transform="matrix(-0.8,0,0,-0.8,-10,0)"
         style="fill:#000000;fill-opacity:1;fill-rule:evenodd;stroke:#000000;stroke-width:1pt;stroke-opacity:1"
         d="M 0,0 5,-5 -12.5,0 5,5 Z"
         id="path1386"
         inkscape:connector-curvature="0" />
    </marker>
    <marker
       inkscape:isstock="true"
       style="overflow:visible"
       id="marker1276"
       refX="0"
       refY="0"
       orient="auto"
       inkscape:stockid="Arrow1Lend">
      <path
         transform="matrix(-0.8,0,0,-0.8,-10,0)"
         style="fill:#000000;fill-opacity:1;fill-rule:evenodd;stroke:#000000;stroke-width:1pt;stroke-opacity:1"
         d="M 0,0 5,-5 -12.5,0 5,5 Z"
         id="path1274"
         inkscape:connector-curvature="0" />
    </marker>
    <marker
       inkscape:isstock="true"
       style="overflow:visible"
       id="marker1158"
       refX="0"
       refY="0"
       orient="auto"
       inkscape:stockid="Arrow1Lend">
      <path
         transform="matrix(-0.8,0,0,-0.8,-10,0)"
         style="fill:#000000;fill-opacity:1;fill-rule:evenodd;stroke:#000000;stroke-width:1pt;stroke-opacity:1"
         d="M 0,0 5,-5 -12.5,0 5,5 Z"
         id="path1156"
         inkscape:connector-curvature="0" />
    </marker>
    <marker
       inkscape:isstock="true"
       style="overflow:visible"
       id="marker1028"
       refX="0"
       refY="0"
       orient="auto"
       inkscape:stockid="Arrow1Lend">
      <path
         transform="matrix(-0.8,0,0,-0.8,-10,0)"
         style="fill:#000000;fill-opacity:1;fill-rule:evenodd;stroke:#000000;stroke-width:1pt;stroke-opacity:1"
         d="M 0,0 5,-5 -12.5,0 5,5 Z"
         id="path1026"
         inkscape:connector-curvature="0" />
    </marker>
    <marker
       inkscape:stockid="Arrow1Lend"
       orient="auto"
       refY="0"
       refX="0"
       id="marker3781"
       style="overflow:visible"
       inkscape:isstock="true">
      <path
         inkscape:connector-curvature="0"
         id="path3779"
         d="M 0,0 5,-5 -12.5,0 5,5 Z"
         style="fill:#000000;fill-opacity:1;fill-rule:evenodd;stroke:#000000;stroke-width:1pt;stroke-opacity:1"
         transform="matrix(-0.8,0,0,-0.8,-10,0)" />
    </marker>
    <marker
       inkscape:stockid="Arrow1Lend"
       orient="auto"
       refY="0"
       refX="0"
       id="marker2925"
       style="overflow:visible"
       inkscape:isstock="true">
      <path
         inkscape:connector-curvature="0"
         id="path2923"
         d="M 0,0 5,-5 -12.5,0 5,5 Z"
         style="fill:#000000;fill-opacity:1;fill-rule:evenodd;stroke:#000000;stroke-width:1pt;stroke-opacity:1"
         transform="matrix(-0.8,0,0,-0.8,-10,0)" />
    </marker>
    <marker
       inkscape:stockid="Arrow1Lend"
       orient="auto"
       refY="0"
       refX="0"
       id="marker2915"
       style="overflow:visible"
       inkscape:isstock="true">
      <path
         inkscape:connector-curvature="0"
         id="path2913"
         d="M 0,0 5,-5 -12.5,0 5,5 Z"
         style="fill:#000000;fill-opacity:1;fill-rule:evenodd;stroke:#000000;stroke-width:1pt;stroke-opacity:1"
         transform="matrix(-0.8,0,0,-0.8,-10,0)" />
    </marker>
    <marker
       inkscape:isstock="true"
       style="overflow:visible"
       id="marker2905"
       refX="0"
       refY="0"
       orient="auto"
       inkscape:stockid="Arrow1Lend">
      <path
         inkscape:connector-curvature="0"
         transform="matrix(-0.8,0,0,-0.8,-10,0)"
         style="fill:#000000;fill-opacity:1;fill-rule:evenodd;stroke:#000000;stroke-width:1pt;stroke-opacity:1"
         d="M 0,0 5,-5 -12.5,0 5,5 Z"
         id="path2903" />
    </marker>
    <marker
       inkscape:stockid="Arrow1Lend"
       orient="auto"
       refY="0"
       refX="0"
       id="marker2885"
       style="overflow:visible"
       inkscape:isstock="true">
      <path
         inkscape:connector-curvature="0"
         id="path2883"
         d="M 0,0 5,-5 -12.5,0 5,5 Z"
         style="fill:#000000;fill-opacity:1;fill-rule:evenodd;stroke:#000000;stroke-width:1pt;stroke-opacity:1"
         transform="matrix(-0.8,0,0,-0.8,-10,0)" />
    </marker>
    <marker
       inkscape:isstock="true"
       style="overflow:visible"
       id="marker2875"
       refX="0"
       refY="0"
       orient="auto"
       inkscape:stockid="Arrow1Lend">
      <path
         inkscape:connector-curvature="0"
         transform="matrix(-0.8,0,0,-0.8,-10,0)"
         style="fill:#000000;fill-opacity:1;fill-rule:evenodd;stroke:#000000;stroke-width:1pt;stroke-opacity:1"
         d="M 0,0 5,-5 -12.5,0 5,5 Z"
         id="path2873" />
    </marker>
    <marker
       inkscape:stockid="Arrow1Lend"
       orient="auto"
       refY="0"
       refX="0"
       id="marker2865"
       style="overflow:visible"
       inkscape:isstock="true">
      <path
         inkscape:connector-curvature="0"
         id="path2863"
         d="M 0,0 5,-5 -12.5,0 5,5 Z"
         style="fill:#000000;fill-opacity:1;fill-rule:evenodd;stroke:#000000;stroke-width:1pt;stroke-opacity:1"
         transform="matrix(-0.8,0,0,-0.8,-10,0)" />
    </marker>
    <marker
       inkscape:isstock="true"
       style="overflow:visible"
       id="marker2855"
       refX="0"
       refY="0"
       orient="auto"
       inkscape:stockid="Arrow1Lend">
      <path
         inkscape:connector-curvature="0"
         transform="matrix(-0.8,0,0,-0.8,-10,0)"
         style="fill:#000000;fill-opacity:1;fill-rule:evenodd;stroke:#000000;stroke-width:1pt;stroke-opacity:1"
         d="M 0,0 5,-5 -12.5,0 5,5 Z"
         id="path2853" />
    </marker>
    <marker
       inkscape:stockid="Arrow1Lend"
       orient="auto"
       refY="0"
       refX="0"
       id="marker2845"
       style="overflow:visible"
       inkscape:isstock="true">
      <path
         inkscape:connector-curvature="0"
         id="path2843"
         d="M 0,0 5,-5 -12.5,0 5,5 Z"
         style="fill:#000000;fill-opacity:1;fill-rule:evenodd;stroke:#000000;stroke-width:1pt;stroke-opacity:1"
         transform="matrix(-0.8,0,0,-0.8,-10,0)" />
    </marker>
    <marker
       inkscape:collect="always"
       inkscape:stockid="Arrow1Lend"
       orient="auto"
       refY="0"
       refX="0"
       id="marker1656"
       style="overflow:visible"
       inkscape:isstock="true">
      <path
         inkscape:connector-curvature="0"
         id="path1654"
         d="M 0,0 5,-5 -12.5,0 5,5 Z"
         style="fill:#000000;fill-opacity:1;fill-rule:evenodd;stroke:#000000;stroke-width:1pt;stroke-opacity:1"
         transform="matrix(-0.8,0,0,-0.8,-10,0)" />
    </marker>
    <marker
       inkscape:collect="always"
       inkscape:stockid="Arrow1Lend"
       orient="auto"
       refY="0"
       refX="0"
       id="marker2845-1"
       style="overflow:visible"
       inkscape:isstock="true">
      <path
         inkscape:connector-curvature="0"
         id="path2843-1"
         d="M 0,0 5,-5 -12.5,0 5,5 Z"
         style="fill:#000000;fill-opacity:1;fill-rule:evenodd;stroke:#000000;stroke-width:1pt;stroke-opacity:1"
         transform="matrix(-0.8,0,0,-0.8,-10,0)" />
    </marker>
  </defs>
  <sodipodi:namedview
     lock-margins="true"
     fit-margin-bottom="20"
     fit-margin-right="20"
     fit-margin-left="20"
     fit-margin-top="20"
     inkscape:guide-bbox="true"
     showguides="true"
     inkscape:snap-bbox-edge-midpoints="false"
     inkscape:bbox-nodes="false"
     inkscape:snap-bbox="true"
     inkscape:snap-global="false"
     inkscape:window-maximized="1"
     inkscape:window-y="-8"
     inkscape:window-x="-8"
     inkscape:window-height="1017"
     inkscape:window-width="1920"
     showgrid="false"
     inkscape:document-rotation="0"
     inkscape:current-layer="layer5"
     inkscape:document-units="mm"
     inkscape:cy="560.09669"
     inkscape:cx="943.48947"
     inkscape:zoom="0.55957423"
     inkscape:pageshadow="2"
     inkscape:pageopacity="0.0"
     borderopacity="1.0"
     bordercolor="#666666"
     pagecolor="#ffffff"
     id="base" />
  <metadata
     id="metadata5">
    <rdf:RDF>
      <cc:Work
         rdf:about="">
        <dc:format>image/svg+xml</dc:format>
        <dc:type
           rdf:resource="http://purl.org/dc/dcmitype/StillImage" />
        <dc:title></dc:title>
      </cc:Work>
    </rdf:RDF>
  </metadata>
  <g
     transform="translate(177.90188,79.228585)"
     id="layer1"
     inkscape:groupmode="layer"
     inkscape:label="Layer 1" />
  <g
     transform="translate(177.90188,79.228585)"
     inkscape:label="Layer 2"
     id="layer2"
     inkscape:groupmode="layer">
    <g
       transform="translate(0.85298919,-5.8113839)"
       id="g1246" />
  </g>
  <g
     transform="translate(177.90188,79.228585)"
     inkscape:label="Layer 3"
     id="layer3"
     inkscape:groupmode="layer" />
  <g
     transform="translate(177.90188,79.228585)"
     inkscape:label="Layer 4"
     id="layer4"
     inkscape:groupmode="layer" />
  <g
     transform="translate(177.90188,79.228585)"
     inkscape:label="Layer 5"
     id="layer5"
     inkscape:groupmode="layer">
    <g
       style="stroke-width:0.264824;stroke-miterlimit:4;stroke-dasharray:none"
       id="g2759"
       transform="matrix(0.83788981,0,0,0.99816766,181.03558,-0.64543995)">
      <g
         style="stroke-width:0.270375;stroke-miterlimit:4;stroke-dasharray:none"
         transform="matrix(1.0002048,0,0,0.95916553,-0.00699601,2.3095448)"
         id="g2757" />
    </g>
    <g
       transform="matrix(0.83787599,0,0,1,28.76376,-2.525194)"
       style="stroke-width:0.264583;stroke-miterlimit:4;stroke-dasharray:none"
       id="g1030">
      <g
         style="stroke-width:0.264824;stroke-miterlimit:4;stroke-dasharray:none"
         id="g952"
         transform="matrix(1.0000165,0,0,0.99816766,-5.5715862e-4,0.28048433)">
        <g
           style="stroke-width:0.270375;stroke-miterlimit:4;stroke-dasharray:none"
           transform="matrix(1.0002048,0,0,0.95916553,-0.00699601,2.3095448)"
           id="g885" />
      </g>
    </g>
    <g
       id="g2765"
       transform="matrix(-1.0151673,0,0,0.95698289,279.72705,0.15074989)"
       style="fill:#e3e3e3;fill-opacity:1;stroke-width:0.270375;stroke-miterlimit:4;stroke-dasharray:none" />
    <rect
       y="118.01707"
       x="56.576065"
       height="17.343618"
       width="39.526989"
       id="rect1216"
       style="fill:#e3e3e3;fill-opacity:1;stroke:#000000;stroke-width:0.293482;stroke-miterlimit:4;stroke-dasharray:none;stroke-dashoffset:10;stroke-opacity:1" />
    <circle
       r="4.9570885"
       cy="129.08891"
       cx="64.44606"
       id="path1232"
       style="fill:#fcfa00;fill-opacity:0.51;stroke:#000000;stroke-width:0.239379;stroke-miterlimit:4;stroke-dasharray:none;stroke-dashoffset:10;stroke-opacity:1" />
    <rect
       y="54.255585"
       x="71.28476"
       height="59.772915"
       width="17.225273"
       id="rect1155"
       style="fill:#e3e3e3;fill-opacity:1;stroke:none;stroke-width:0.243778;stroke-miterlimit:4;stroke-dasharray:none;stroke-dashoffset:10;stroke-opacity:1" />
    <path
       id="path1134"
       style="fill:#e3e3e3;fill-opacity:1;stroke:#000000;stroke-width:0.266494;stroke-linecap:butt;stroke-linejoin:miter;stroke-miterlimit:4;stroke-dasharray:none;stroke-opacity:1"
       d="m 88.362995,108.83906 v 1.31627 m -0.01799,-6.38965 v 1.31626 m 0,-6.37787 v 1.31627 m -0.01798,-6.377873 v 1.316264 m -0.01199,-6.37787 v 1.316264 m 0.006,-6.386118 v 1.316264 m -0.006,-6.377869 v 1.316264 m -0.01695,-6.381668 v 1.316264 m 0,-6.373813 v 1.316264 m 0,-6.386118 v 1.316264 m -0.01199,-6.377869 v 1.316264 m 0,54.517246 h 15.826515 v -4.01027 H 88.286098 m 0,-1.05375 h 15.826522 v -4.01027 H 88.286098 m 0,-1.05376 H 104.11262 V 99.890174 H 88.286098 m 0,-1.053756 h 15.826522 v -4.01027 H 88.286098 m 0,-1.053763 H 104.11262 V 89.762116 H 88.286098 m 0,-1.053764 H 104.11262 V 84.698084 H 88.286098 m 0,-1.053764 H 104.11262 V 79.634052 H 88.286098 m 0,-1.053763 H 104.11262 V 74.57002 H 88.286098 m 0,-16.245864 H 104.11262 V 54.313889 H 88.286098 m 0,19.202368 H 104.11262 V 69.505988 H 88.286098 m 0,-1.053764 H 104.11262 V 64.441956 H 88.286098 m 0,-1.053765 H 104.11262 V 59.377925 H 88.286098 M 71.212741,108.78625 v 1.31627 m 0.01798,-6.38965 v 1.31626 m 0,-6.37787 v 1.316268 m 0.01799,-6.377872 v 1.316264 m 0.01199,-6.377869 v 1.316263 m -0.006,-6.386117 v 1.316264 m 0.006,-6.377869 v 1.316264 m 0.01695,-6.381668 v 1.316264 m 0,-6.373813 v 1.316264 m 0,-6.386118 v 1.316264 m 0.01199,-6.37787 v 1.316264 m 0,54.517247 H 55.463116 v -4.01026 h 15.826522 m 0,-1.05376 H 55.463116 v -4.01026 h 15.826522 m 0,-1.05377 H 55.463116 v -4.010275 h 15.826522 m 0,-1.053757 H 55.463116 v -4.01027 h 15.826522 m 0,-1.053764 H 55.463116 v -4.010269 h 15.826522 m 0,-1.053763 H 55.463116 v -4.010269 h 15.826522 m 0,-1.053763 H 55.463116 v -4.010269 h 15.826522 m 0,-1.053763 H 55.463116 V 74.51721 h 15.826522 m 0,-16.245864 H 55.463116 v -4.010268 h 15.826522 m 0,19.202368 H 55.463116 v -4.010268 h 15.826522 m 0,-1.053765 H 55.463116 v -4.010268 h 15.826522 m 0,-1.053764 H 55.463116 v -4.010267 h 15.826522 m -0.0049,-5.069532 24.907667,0.07344 m 0,59.643818 H 70.487866"
       inkscape:connector-curvature="0" />
    <path
       inkscape:connector-curvature="0"
       d="m 82.018379,39.105887 v 24.90139 h 3.975027 v -9.891391 h 2.674976 v -5.444769 h -2.674976 v -4.097683 h 2.674976 v -5.44477 h -2.674976 v -0.02277 z"
       style="fill:#a7a9ad;fill-opacity:1;stroke:#000000;stroke-width:0.196552;stroke-miterlimit:4;stroke-dasharray:none;stroke-dashoffset:10;stroke-opacity:1"
       id="rect1139" />
    <path
       id="path1149"
       style="fill:#a7a9ad;fill-opacity:1;stroke:#000000;stroke-width:0.196552;stroke-miterlimit:4;stroke-dasharray:none;stroke-dashoffset:10;stroke-opacity:1"
       d="m 77.428723,39.105887 v 24.90139 h -3.975027 v -9.891391 h -2.674975 v -5.444769 h 2.674975 v -4.097683 h -2.674975 v -5.44477 h 2.674975 v -0.02277 z"
       inkscape:connector-curvature="0" />
    <rect
       y="63.812733"
       x="74.1101"
       height="66.946732"
       width="10.955097"
       id="rect1302"
       style="fill:#a7a9ad;fill-opacity:1;stroke:#000000;stroke-width:0.529167;stroke-miterlimit:4;stroke-dasharray:none;stroke-dashoffset:10;stroke-opacity:1" />
    <circle
       r="1.7559659"
       cy="120.96416"
       cx="59.369209"
       id="path1849"
       style="fill:#000000;fill-opacity:1;stroke:none;stroke-width:0.223358;stroke-miterlimit:4;stroke-dasharray:none;stroke-dashoffset:10;stroke-opacity:1" />
    <path
       sodipodi:nodetypes="cccccccccccccccccc"
       inkscape:connector-curvature="0"
       d="m 76.289915,145.14321 h 6.623532 l -1.030066,5.36116 -4.068748,0.0573 z m 5.580128,5.38615 c 0,0.33606 -1.116883,0.65863 -2.272166,0.65863 -4.96991,-0.54966 2.506782,-2.24785 2.272166,-0.65863 z m -10.990053,-10.36412 17.370194,0.0501 0.06559,5.7271 -17.435769,0.10028 z m 3.130822,-9.14395 h 11.174126 v 9.9963 H 74.010813 Z"
       style="fill:#ffd700;fill-opacity:1;stroke:none;stroke-width:0.276253;stroke-miterlimit:4;stroke-dasharray:none;stroke-dashoffset:10;stroke-opacity:1"
       id="rect1267" />
    <rect
       y="21.649544"
       x="77.225296"
       height="109.2073"
       width="4.7247024"
       id="rect1199"
       style="fill:#0000ff;fill-opacity:1;stroke:none;stroke-width:0.246586;stroke-miterlimit:4;stroke-dasharray:none;stroke-dashoffset:10;stroke-opacity:1" />
    <rect
       y="136.58859"
       x="74.426003"
       height="4.4767647"
       width="10.323286"
       id="rect1272"
       style="fill:#ffd700;fill-opacity:1;stroke:none;stroke-width:0.276161;stroke-miterlimit:4;stroke-dasharray:none;stroke-dashoffset:10;stroke-opacity:1" />
    <rect
       style="fill:#ff0000;fill-opacity:0.7;stroke:none;stroke-width:0.173;stroke-miterlimit:4;stroke-dasharray:none;stroke-dashoffset:10;stroke-opacity:1"
       id="rect1339"
       width="2"
       height="126.57116"
       x="78.428009"
       y="8.9105015" />
    <path
       sodipodi:nodetypes="cc"
       inkscape:connector-curvature="0"
       id="path3386"
       d="M -61.622096,21.501362 C -62.617119,-81.349295 79.594075,-84.739423 79.574433,21.868256"
       style="fill:none;stroke:#0000ff;stroke-width:4.725;stroke-linecap:butt;stroke-linejoin:miter;stroke-miterlimit:4;stroke-dasharray:none;stroke-opacity:1" />
    <path
       style="fill:none;stroke:#ff0000;stroke-width:2;stroke-linecap:butt;stroke-linejoin:miter;stroke-miterlimit:4;stroke-dasharray:none;stroke-opacity:0.7"
       d="M -61.784704,21.515769 C -62.779727,-81.334888 79.431467,-84.725016 79.411825,21.882663"
       id="path3388"
       inkscape:connector-curvature="0"
       sodipodi:nodetypes="cc" />
    <rect
       ry="6.4409647"
       y="21.726231"
       x="-90.629684"
       height="63.550846"
       width="54.962898"
       id="rect6257"
       style="fill:#000000;fill-opacity:1;stroke:none;stroke-width:0.753587;stroke-miterlimit:4;stroke-dasharray:none;stroke-dashoffset:10;stroke-opacity:0.7" />
    <g
       transform="matrix(0.16745149,0,0,0.16745149,-149.14109,-0.13545)"
       id="g6247">
      <path
         style="fill:#a9a9a9;fill-opacity:1;stroke-width:0.264583"
         d="m 402.18654,363.55629 c -1.81582,-4.11133 -9.64408,-20.95011 -9.8226,-21.12862 -0.12046,-0.12046 -2.87206,-1.00887 -6.11467,-1.97425 l -5.89566,-1.75522 -10.42128,6.63929 c -5.7317,3.65161 -10.51636,6.63929 -10.63257,6.63929 -0.11621,0 -2.92254,-1.80403 -6.23629,-4.00895 -4.72246,-3.14226 -6.02228,-4.12896 -6.01244,-4.56406 0.007,-0.30531 0.69887,-5.909 1.53768,-12.45263 l 1.52511,-11.89751 -3.19132,-3.56005 c -1.75523,-1.95802 -3.60804,-4.0241 -4.11736,-4.59128 l -0.92604,-1.03125 -10.45104,-0.23677 c -5.74808,-0.13022 -11.35599,-0.24096 -12.46203,-0.24609 l -2.01099,-0.009 -2.92009,-6.61125 -2.92008,-6.61126 0.98153,-1.12781 c 0.53985,-0.62029 3.99877,-4.69968 7.68649,-9.0653 3.68772,-4.36563 6.88095,-8.1442 7.09606,-8.39684 0.34728,-0.40785 0.2936,-1.10483 -0.47883,-6.21771 -0.68612,-4.54155 -0.97386,-5.85137 -1.36165,-6.19851 -0.27043,-0.24207 -4.92629,-3.26448 -10.34636,-6.71646 -5.42007,-3.45198 -9.94731,-6.35883 -10.06052,-6.45966 -0.17738,-0.15798 1.17588,-13.40242 1.53326,-15.00621 0.0962,-0.43168 0.4776,-0.67549 1.51721,-0.96986 0.76379,-0.21628 6.09439,-1.72061 11.84578,-3.34296 l 10.45707,-2.94974 2.83824,-5.65053 c 1.56103,-3.10779 2.83824,-5.73832 2.83824,-5.84562 0,-0.10731 -2.32172,-5.21313 -5.15938,-11.34628 -2.83765,-6.13315 -5.15937,-11.24282 -5.15937,-11.35483 0,-0.18229 2.36291,-2.79548 8.09999,-8.9579 l 1.9052,-2.04644 11.75877,3.30321 c 6.46733,1.81677 11.89076,3.30322 12.05206,3.30322 0.16131,0 2.55673,-1.48264 5.32315,-3.29474 3.63405,-2.38044 5.06689,-3.46343 5.16328,-3.90261 0.0734,-0.33432 0.30894,-1.91755 0.52347,-3.51828 2.6127,-19.49456 2.72693,-20.27989 2.98203,-20.50045 0.11766,-0.10173 3.25002,-1.0429 6.9608,-2.0915 3.71078,-1.04859 6.94201,-1.96437 7.18051,-2.03507 0.31216,-0.0925 2.71655,2.5237 8.58265,9.33883 l 8.14901,9.46736 2.92673,-0.0658 c 1.6097,-0.0362 4.36456,-0.13629 6.12192,-0.22243 l 3.19521,-0.15663 7.38813,-8.06206 c 4.06347,-4.43414 7.86438,-8.59636 8.44646,-9.24938 l 1.05834,-1.18731 4.23333,1.36337 c 2.32833,0.74985 5.36443,1.71901 6.74688,2.15368 1.38244,0.43466 2.61428,0.88617 2.73742,1.00335 0.12313,0.11718 0.98515,5.31534 1.91561,11.55146 0.93045,6.23613 1.74979,11.58671 1.82075,11.89018 0.0844,0.36078 1.94205,1.75739 5.36698,4.03489 2.88087,1.91573 5.36116,3.48314 5.51174,3.48314 0.21815,0 12.17822,-3.4799 21.74404,-6.32663 l 1.658,-0.49341 5.05409,5.68329 5.05409,5.68329 -1.60069,3.48141 c -0.88037,1.91478 -3.15668,6.86488 -5.05844,11.00023 -1.90177,4.13534 -3.45766,7.70722 -3.45754,7.9375 1.2e-4,0.23028 1.17043,2.79994 2.60069,5.71036 l 2.60046,5.29166 11.72234,3.83585 c 9.36029,3.06291 11.7661,3.94259 11.93947,4.36562 0.11942,0.29138 0.5845,3.26822 1.0335,6.6152 0.449,3.34698 0.88106,6.45489 0.96013,6.90646 l 0.14375,0.82104 -9.74559,6.29061 c -5.36008,3.45984 -10.11321,6.56426 -10.56252,6.89871 l -0.81693,0.6081 -0.60204,5.64171 c -0.33113,3.10294 -0.61836,5.90193 -0.63829,6.21998 -0.0255,0.40712 2.3011,3.24789 7.86081,9.59796 5.83819,6.66814 7.85351,9.13863 7.73005,9.47589 -0.0918,0.25091 -1.44173,3.34347 -2.99974,6.87235 l -2.83275,6.41615 h -6.77287 c -3.72508,0 -9.29349,0.0785 -12.37425,0.17444 l -5.60138,0.17444 -3.48323,3.86046 c -1.91577,2.12325 -3.806,4.21764 -4.20049,4.6542 l -0.71727,0.79375 0.35574,2.51354 c 1.2029,8.49916 2.99943,21.80636 2.94969,21.84879 -0.0324,0.0276 -2.14247,1.45904 -4.68909,3.18094 -2.54661,1.72189 -5.27502,3.58118 -6.06313,4.13175 -0.78811,0.55056 -1.54995,1.00102 -1.69297,1.00102 -0.19501,0 -12.69248,-7.77429 -20.73168,-12.89653 -0.51316,-0.32697 -1.19356,-0.18838 -6.39587,1.30274 l -5.82162,1.66862 -5.12841,11.24644 -5.12842,11.24644 -7.54988,0.0701 -7.54989,0.0701 z m 15.27297,-46.39563 c 20.13617,-2.59167 37.70011,-15.8947 45.7475,-34.64944 8.60667,-20.05814 5.14539,-43.29064 -8.96821,-60.19572 -8.86913,-10.62331 -21.84587,-17.8614 -35.76283,-19.94759 -18.02479,-2.70196 -36.51442,3.36968 -49.4743,16.24642 -8.92722,8.86996 -14.65414,20.26562 -16.56064,32.95308 -0.56786,3.77893 -0.6435,11.4068 -0.15087,15.21354 1.92244,14.85569 9.61086,28.68983 21.07185,37.9156 8.62576,6.94349 19.04125,11.35858 29.75186,12.61173 3.18867,0.37308 10.91803,0.29354 14.34564,-0.14762 z"
         id="path6241"
         inkscape:connector-curvature="0" />
      <circle
         style="fill:#a9a9a9;fill-opacity:1;stroke:none;stroke-width:2;stroke-miterlimit:4;stroke-dasharray:none;stroke-dashoffset:10;stroke-opacity:0.7"
         id="path6243"
         cx="410.25128"
         cy="260.15771"
         r="71.795433" />
    </g>
    <circle
       r="16.31711"
       cy="43.625523"
       cx="-44.480824"
       id="path6249"
       style="fill:#a9a9a9;fill-opacity:1;stroke:none;stroke-width:0.753587;stroke-miterlimit:4;stroke-dasharray:none;stroke-dashoffset:10;stroke-opacity:0.7" />
    <rect
       ry="5.7927403"
       y="22.47431"
       x="-62.939487"
       height="127.44029"
       width="2"
       id="rect6259"
       style="fill:#ff0000;fill-opacity:0.7;stroke:none;stroke-width:0.469324;stroke-miterlimit:4;stroke-dasharray:none;stroke-dashoffset:10;stroke-opacity:0.7" />
    <path
       inkscape:connector-curvature="0"
       id="path6349"
       d="m -74.711356,52.555099 c 0.9137,-1.180881 1.67649,-2.171129 1.69509,-2.200553 0.0321,-0.05067 -0.10971,-0.07287 -2.71352,-0.424338 l -2.74736,-0.370849 0.29806,0.745385 0.29806,0.745378 -0.0847,0.03441 c -0.12221,0.04966 -0.63846,0.193878 -0.90696,0.253422 -1.69888,0.376744 -3.55941,0.130908 -5.14677,-0.680047 -0.14055,-0.0718 -0.1571,-0.0745 -0.18484,-0.03005 -0.0804,0.128642 -1.07425,1.979131 -1.06938,1.991045 0.0107,0.02613 0.65203,0.332473 0.96834,0.462524 2.24168,0.921651 4.74796,0.999555 7.03479,0.21867 l 0.27219,-0.09295 0.31286,0.747534 0.31286,0.747534 z m 3.623,-4.611195 c 1.19388,-2.428167 1.37726,-5.163885 0.51535,-7.688011 l -0.093,-0.272189 0.74796,-0.313032 0.74796,-0.313032 -2.15469,-1.668945 c -1.18508,-0.917919 -2.17561,-1.680829 -2.20116,-1.695349 -0.0411,-0.02338 -0.089,0.289322 -0.41712,2.721373 l -0.37068,2.747784 0.74538,-0.298056 0.74538,-0.298062 0.0313,0.07654 c 0.12328,0.301257 0.28854,1.003308 0.3603,1.530553 0.20772,1.526335 -0.0706,3.135184 -0.78385,4.531324 -0.0718,0.140555 -0.0745,0.1571 -0.0301,0.184847 0.12865,0.08036 1.97914,1.07425 1.99105,1.069379 0.008,-0.0029 0.0821,-0.144875 0.16584,-0.315123 z m -15.85766,0.188949 0.37221,-2.737032 -0.74548,0.298099 -0.74548,0.298099 -0.0344,-0.08469 c -0.0495,-0.121971 -0.19378,-0.638072 -0.25348,-0.906936 -0.24878,-1.120291 -0.22091,-2.421982 0.0762,-3.558005 0.13805,-0.527891 0.38377,-1.172925 0.61176,-1.60588 0.0556,-0.105636 0.0647,-0.144287 0.0375,-0.159699 -0.15537,-0.08816 -1.90508,-1.037437 -1.95054,-1.058236 -0.0569,-0.02606 -0.0612,-0.02105 -0.18468,0.217059 -0.17249,0.332553 -0.43936,0.96926 -0.56626,1.350954 -0.69738,2.097777 -0.69249,4.347072 0.0139,6.415927 l 0.093,0.272188 -0.74797,0.31304 -0.74797,0.313039 2.17653,1.6861 c 1.19709,0.927349 2.18696,1.685403 2.19971,1.684546 0.0128,-7.26e-4 0.19069,-1.233209 0.39541,-2.738571 z m 10.7798,-12.852796 c 0.29412,-0.54244 0.5402,-0.999105 0.54686,-1.014808 0.0284,-0.06693 -1.0658,-0.557002 -1.67376,-0.749624 -0.85349,-0.270418 -1.52266,-0.400294 -2.39348,-0.464521 -1.31262,-0.09682 -2.67723,0.07929 -3.93056,0.507266 l -0.27218,0.09295 -0.31323,-0.748419 -0.31322,-0.748427 -1.67765,2.168015 c -0.9227,1.192402 -1.68697,2.181764 -1.69836,2.198571 -0.0137,0.02026 0.75807,0.136352 2.28246,0.343435 1.26675,0.172085 2.50492,0.340801 2.75147,0.374914 l 0.4483,0.062 -0.2998,-0.749661 -0.29981,-0.749653 0.22678,-0.07472 c 1.27875,-0.421398 2.75246,-0.49258 4.06254,-0.196231 0.58359,0.132011 1.35825,0.40881 1.79977,0.643088 0.10708,0.05684 0.20019,0.10078 0.20692,0.09769 0.007,-0.0029 0.25285,-0.449435 0.54695,-0.991881 z"
       style="fill:#ffffff;fill-opacity:1;stroke-width:0.0244629" />
    <path
       inkscape:connector-curvature="0"
       id="path6353"
       d="m -50.213365,52.555099 c -0.9137,-1.180881 -1.67649,-2.171129 -1.69509,-2.200553 -0.0321,-0.05067 0.10971,-0.07287 2.71352,-0.424338 l 2.74736,-0.370849 -0.29806,0.745385 -0.29806,0.745378 0.0847,0.03441 c 0.12221,0.04966 0.63846,0.193878 0.90696,0.253422 1.69888,0.376744 3.55941,0.130908 5.14677,-0.680047 0.14055,-0.0718 0.1571,-0.0745 0.18484,-0.03005 0.0804,0.128642 1.07425,1.979131 1.06938,1.991045 -0.0107,0.02613 -0.65203,0.332473 -0.96834,0.462524 -2.24168,0.921651 -4.74796,0.999555 -7.03479,0.21867 l -0.27219,-0.09295 -0.31286,0.747534 -0.31286,0.747534 z m -3.623,-4.611195 c -1.19388,-2.428167 -1.37726,-5.163885 -0.51535,-7.688011 l 0.093,-0.272189 -0.74796,-0.313032 -0.74796,-0.313032 2.15469,-1.668945 c 1.18508,-0.917919 2.17561,-1.680829 2.20116,-1.695349 0.0411,-0.02338 0.089,0.289322 0.41712,2.721373 l 0.37068,2.747784 -0.74538,-0.298056 -0.74538,-0.298062 -0.0313,0.07654 c -0.12328,0.301257 -0.28854,1.003308 -0.3603,1.530553 -0.20772,1.526335 0.0706,3.135184 0.78385,4.531324 0.0718,0.140555 0.0745,0.1571 0.0301,0.184847 -0.12865,0.08036 -1.97914,1.07425 -1.99105,1.069379 -0.008,-0.0029 -0.0821,-0.144875 -0.16584,-0.315123 z m 15.85766,0.188949 -0.37221,-2.737032 0.74548,0.298099 0.74548,0.298099 0.0344,-0.08469 c 0.0495,-0.121971 0.19378,-0.638072 0.25348,-0.906936 0.24878,-1.120291 0.22091,-2.421982 -0.0762,-3.558005 -0.13805,-0.527891 -0.38377,-1.172925 -0.61176,-1.60588 -0.0556,-0.105636 -0.0647,-0.144287 -0.0375,-0.159699 0.15537,-0.08816 1.90508,-1.037437 1.95054,-1.058236 0.0569,-0.02606 0.0612,-0.02105 0.18468,0.217059 0.17249,0.332553 0.43936,0.96926 0.56626,1.350954 0.69738,2.097777 0.69249,4.347072 -0.0139,6.415927 l -0.093,0.272188 0.74797,0.31304 0.74797,0.313039 -2.17653,1.6861 c -1.19709,0.927349 -2.18696,1.685403 -2.19971,1.684546 -0.0128,-7.26e-4 -0.19069,-1.233209 -0.39541,-2.738571 z m -10.7798,-12.852796 c -0.29412,-0.54244 -0.5402,-0.999105 -0.54686,-1.014808 -0.0284,-0.06693 1.0658,-0.557002 1.67376,-0.749624 0.85349,-0.270418 1.52266,-0.400294 2.39348,-0.464521 1.31262,-0.09682 2.67723,0.07929 3.93056,0.507266 l 0.27218,0.09295 0.31323,-0.748419 0.31322,-0.748427 1.67765,2.168015 c 0.9227,1.192402 1.68697,2.181764 1.69836,2.198571 0.0137,0.02026 -0.75807,0.136352 -2.28246,0.343435 -1.26675,0.172085 -2.50492,0.340801 -2.75147,0.374914 l -0.4483,0.062 0.2998,-0.749661 0.29981,-0.749653 -0.22678,-0.07472 c -1.27875,-0.421398 -2.75246,-0.49258 -4.06254,-0.196231 -0.58359,0.132011 -1.35825,0.40881 -1.79977,0.643088 -0.10708,0.05684 -0.20019,0.10078 -0.20692,0.09769 -0.007,-0.0029 -0.25285,-0.449435 -0.54695,-0.991881 z"
       style="fill:#ffffff;fill-opacity:1;stroke-width:0.0244629" />
    <g
       transform="translate(4.6034733,-47.095835)"
       id="g6491">
      <rect
         ry="6.4409647"
         y="-85.277077"
         x="-242.70357"
         height="63.550846"
         width="54.962898"
         id="rect6357"
         style="fill:#000000;fill-opacity:1;stroke:none;stroke-width:0.753587;stroke-miterlimit:4;stroke-dasharray:none;stroke-dashoffset:10;stroke-opacity:0.7"
         transform="scale(-1)" />
      <g
         transform="matrix(-0.15324693,-0.06749355,0.06749355,-0.15324693,278.88686,131.13265)"
         id="g6363">
        <path
           style="fill:#a9a9a9;fill-opacity:1;stroke-width:0.264583"
           d="m 402.18654,363.55629 c -1.81582,-4.11133 -9.64408,-20.95011 -9.8226,-21.12862 -0.12046,-0.12046 -2.87206,-1.00887 -6.11467,-1.97425 l -5.89566,-1.75522 -10.42128,6.63929 c -5.7317,3.65161 -10.51636,6.63929 -10.63257,6.63929 -0.11621,0 -2.92254,-1.80403 -6.23629,-4.00895 -4.72246,-3.14226 -6.02228,-4.12896 -6.01244,-4.56406 0.007,-0.30531 0.69887,-5.909 1.53768,-12.45263 l 1.52511,-11.89751 -3.19132,-3.56005 c -1.75523,-1.95802 -3.60804,-4.0241 -4.11736,-4.59128 l -0.92604,-1.03125 -10.45104,-0.23677 c -5.74808,-0.13022 -11.35599,-0.24096 -12.46203,-0.24609 l -2.01099,-0.009 -2.92009,-6.61125 -2.92008,-6.61126 0.98153,-1.12781 c 0.53985,-0.62029 3.99877,-4.69968 7.68649,-9.0653 3.68772,-4.36563 6.88095,-8.1442 7.09606,-8.39684 0.34728,-0.40785 0.2936,-1.10483 -0.47883,-6.21771 -0.68612,-4.54155 -0.97386,-5.85137 -1.36165,-6.19851 -0.27043,-0.24207 -4.92629,-3.26448 -10.34636,-6.71646 -5.42007,-3.45198 -9.94731,-6.35883 -10.06052,-6.45966 -0.17738,-0.15798 1.17588,-13.40242 1.53326,-15.00621 0.0962,-0.43168 0.4776,-0.67549 1.51721,-0.96986 0.76379,-0.21628 6.09439,-1.72061 11.84578,-3.34296 l 10.45707,-2.94974 2.83824,-5.65053 c 1.56103,-3.10779 2.83824,-5.73832 2.83824,-5.84562 0,-0.10731 -2.32172,-5.21313 -5.15938,-11.34628 -2.83765,-6.13315 -5.15937,-11.24282 -5.15937,-11.35483 0,-0.18229 2.36291,-2.79548 8.09999,-8.9579 l 1.9052,-2.04644 11.75877,3.30321 c 6.46733,1.81677 11.89076,3.30322 12.05206,3.30322 0.16131,0 2.55673,-1.48264 5.32315,-3.29474 3.63405,-2.38044 5.06689,-3.46343 5.16328,-3.90261 0.0734,-0.33432 0.30894,-1.91755 0.52347,-3.51828 2.6127,-19.49456 2.72693,-20.27989 2.98203,-20.50045 0.11766,-0.10173 3.25002,-1.0429 6.9608,-2.0915 3.71078,-1.04859 6.94201,-1.96437 7.18051,-2.03507 0.31216,-0.0925 2.71655,2.5237 8.58265,9.33883 l 8.14901,9.46736 2.92673,-0.0658 c 1.6097,-0.0362 4.36456,-0.13629 6.12192,-0.22243 l 3.19521,-0.15663 7.38813,-8.06206 c 4.06347,-4.43414 7.86438,-8.59636 8.44646,-9.24938 l 1.05834,-1.18731 4.23333,1.36337 c 2.32833,0.74985 5.36443,1.71901 6.74688,2.15368 1.38244,0.43466 2.61428,0.88617 2.73742,1.00335 0.12313,0.11718 0.98515,5.31534 1.91561,11.55146 0.93045,6.23613 1.74979,11.58671 1.82075,11.89018 0.0844,0.36078 1.94205,1.75739 5.36698,4.03489 2.88087,1.91573 5.36116,3.48314 5.51174,3.48314 0.21815,0 12.17822,-3.4799 21.74404,-6.32663 l 1.658,-0.49341 5.05409,5.68329 5.05409,5.68329 -1.60069,3.48141 c -0.88037,1.91478 -3.15668,6.86488 -5.05844,11.00023 -1.90177,4.13534 -3.45766,7.70722 -3.45754,7.9375 1.2e-4,0.23028 1.17043,2.79994 2.60069,5.71036 l 2.60046,5.29166 11.72234,3.83585 c 9.36029,3.06291 11.7661,3.94259 11.93947,4.36562 0.11942,0.29138 0.5845,3.26822 1.0335,6.6152 0.449,3.34698 0.88106,6.45489 0.96013,6.90646 l 0.14375,0.82104 -9.74559,6.29061 c -5.36008,3.45984 -10.11321,6.56426 -10.56252,6.89871 l -0.81693,0.6081 -0.60204,5.64171 c -0.33113,3.10294 -0.61836,5.90193 -0.63829,6.21998 -0.0255,0.40712 2.3011,3.24789 7.86081,9.59796 5.83819,6.66814 7.85351,9.13863 7.73005,9.47589 -0.0918,0.25091 -1.44173,3.34347 -2.99974,6.87235 l -2.83275,6.41615 h -6.77287 c -3.72508,0 -9.29349,0.0785 -12.37425,0.17444 l -5.60138,0.17444 -3.48323,3.86046 c -1.91577,2.12325 -3.806,4.21764 -4.20049,4.6542 l -0.71727,0.79375 0.35574,2.51354 c 1.2029,8.49916 2.99943,21.80636 2.94969,21.84879 -0.0324,0.0276 -2.14247,1.45904 -4.68909,3.18094 -2.54661,1.72189 -5.27502,3.58118 -6.06313,4.13175 -0.78811,0.55056 -1.54995,1.00102 -1.69297,1.00102 -0.19501,0 -12.69248,-7.77429 -20.73168,-12.89653 -0.51316,-0.32697 -1.19356,-0.18838 -6.39587,1.30274 l -5.82162,1.66862 -5.12841,11.24644 -5.12842,11.24644 -7.54988,0.0701 -7.54989,0.0701 z m 15.27297,-46.39563 c 20.13617,-2.59167 37.70011,-15.8947 45.7475,-34.64944 8.60667,-20.05814 5.14539,-43.29064 -8.96821,-60.19572 -8.86913,-10.62331 -21.84587,-17.8614 -35.76283,-19.94759 -18.02479,-2.70196 -36.51442,3.36968 -49.4743,16.24642 -8.92722,8.86996 -14.65414,20.26562 -16.56064,32.95308 -0.56786,3.77893 -0.6435,11.4068 -0.15087,15.21354 1.92244,14.85569 9.61086,28.68983 21.07185,37.9156 8.62576,6.94349 19.04125,11.35858 29.75186,12.61173 3.18867,0.37308 10.91803,0.29354 14.34564,-0.14762 z"
           id="path6359"
           inkscape:connector-curvature="0" />
        <circle
           style="fill:#a9a9a9;fill-opacity:1;stroke:none;stroke-width:2;stroke-miterlimit:4;stroke-dasharray:none;stroke-dashoffset:10;stroke-opacity:0.7"
           id="circle6361"
           cx="410.25128"
           cy="260.15771"
           r="71.795433" />
      </g>
      <circle
         r="16.31711"
         cy="-63.377785"
         cx="-197.08382"
         id="circle6365"
         style="fill:#a9a9a9;fill-opacity:1;stroke:none;stroke-width:0.753587;stroke-miterlimit:4;stroke-dasharray:none;stroke-dashoffset:10;stroke-opacity:0.7"
         transform="scale(-1)" />
      <path
         inkscape:connector-curvature="0"
         id="path6367"
         d="m 227.31436,54.448209 c -0.9137,1.180881 -1.67649,2.171129 -1.69509,2.200553 -0.0321,0.05067 0.10971,0.07287 2.71353,0.424338 l 2.74736,0.370849 -0.29806,-0.745385 -0.29806,-0.745378 0.0847,-0.03441 c 0.12221,-0.04966 0.63846,-0.193878 0.90696,-0.253422 1.69888,-0.376744 3.55941,-0.130908 5.14677,0.680047 0.14055,0.0718 0.1571,0.0745 0.18484,0.03005 0.0804,-0.128642 1.07425,-1.979131 1.06938,-1.991045 -0.0107,-0.02613 -0.65203,-0.332473 -0.96834,-0.462524 -2.24168,-0.921651 -4.74796,-0.999555 -7.03479,-0.21867 l -0.27219,0.09295 -0.31286,-0.747534 -0.31286,-0.747534 z m -3.623,4.611195 c -1.19388,2.428167 -1.37726,5.163885 -0.51535,7.688011 l 0.093,0.272189 -0.74796,0.313032 -0.74796,0.313032 2.15469,1.668945 c 1.18508,0.917919 2.17561,1.680829 2.20116,1.695349 0.0411,0.02338 0.089,-0.289322 0.41712,-2.721373 l 0.37068,-2.747784 -0.74538,0.298056 -0.74538,0.298062 -0.0313,-0.07654 c -0.12328,-0.301257 -0.28854,-1.003308 -0.3603,-1.530553 -0.20772,-1.526335 0.0706,-3.135184 0.78385,-4.531324 0.0718,-0.140555 0.0745,-0.1571 0.0301,-0.184847 -0.12865,-0.08036 -1.97914,-1.07425 -1.99105,-1.069379 -0.008,0.0029 -0.0821,0.144875 -0.16584,0.315123 z m 15.85767,-0.188949 -0.37221,2.737032 0.74548,-0.298099 0.74548,-0.298099 0.0344,0.08469 c 0.0495,0.121971 0.19378,0.638072 0.25348,0.906936 0.24878,1.120291 0.22091,2.421982 -0.0762,3.558005 -0.13805,0.527891 -0.38377,1.172925 -0.61176,1.60588 -0.0556,0.105636 -0.0647,0.144287 -0.0375,0.159699 0.15537,0.08816 1.90508,1.037437 1.95054,1.058236 0.0569,0.02606 0.0612,0.02105 0.18468,-0.217059 0.17249,-0.332553 0.43936,-0.96926 0.56626,-1.350954 0.69738,-2.097777 0.69249,-4.347072 -0.0139,-6.415927 l -0.093,-0.272188 0.74797,-0.31304 0.74798,-0.313039 -2.17654,-1.6861 c -1.19709,-0.927349 -2.18696,-1.685403 -2.19971,-1.684546 -0.0128,7.26e-4 -0.19069,1.233209 -0.39541,2.738571 z m -10.7798,12.852796 c -0.29412,0.54244 -0.5402,0.999105 -0.54686,1.014808 -0.0284,0.06693 1.0658,0.557002 1.67376,0.749624 0.85349,0.270418 1.52266,0.400294 2.39348,0.464521 1.31262,0.09682 2.67723,-0.07929 3.93056,-0.507266 l 0.27218,-0.09295 0.31323,0.748419 0.31322,0.748427 1.67765,-2.168015 c 0.9227,-1.192402 1.68697,-2.181764 1.69836,-2.198571 0.0137,-0.02026 -0.75807,-0.136352 -2.28246,-0.343435 -1.26675,-0.172085 -2.50492,-0.340801 -2.75147,-0.374914 l -0.4483,-0.062 0.2998,0.749661 0.29981,0.749653 -0.22678,0.07472 c -1.27875,0.421398 -2.75246,0.49258 -4.06254,0.196231 -0.58359,-0.132011 -1.35825,-0.40881 -1.79977,-0.643088 -0.10708,-0.05684 -0.20019,-0.10078 -0.20692,-0.09769 -0.007,0.0029 -0.25285,0.449435 -0.54695,0.991881 z"
         style="fill:#ffffff;fill-opacity:1;stroke-width:0.0244629" />
      <path
         inkscape:connector-curvature="0"
         id="path6371"
         d="m 202.81636,54.448209 c 0.9137,1.180881 1.67649,2.171129 1.69509,2.200553 0.0321,0.05067 -0.10971,0.07287 -2.71352,0.424338 l -2.74736,0.370849 0.29806,-0.745385 0.29806,-0.745378 -0.0847,-0.03441 c -0.12221,-0.04966 -0.63846,-0.193878 -0.90696,-0.253422 -1.69888,-0.376744 -3.55942,-0.130908 -5.14678,0.680047 -0.14055,0.0718 -0.1571,0.0745 -0.18484,0.03005 -0.0804,-0.128642 -1.07425,-1.979131 -1.06938,-1.991045 0.0107,-0.02613 0.65203,-0.332473 0.96834,-0.462524 2.24168,-0.921651 4.74797,-0.999555 7.0348,-0.21867 l 0.27219,0.09295 0.31286,-0.747534 0.31286,-0.747534 z m 3.623,4.611195 c 1.19388,2.428167 1.37726,5.163885 0.51535,7.688011 l -0.093,0.272189 0.74796,0.313032 0.74796,0.313032 -2.15469,1.668945 c -1.18508,0.917919 -2.17561,1.680829 -2.20116,1.695349 -0.0411,0.02338 -0.089,-0.289322 -0.41712,-2.721373 l -0.37068,-2.747784 0.74538,0.298056 0.74538,0.298062 0.0313,-0.07654 c 0.12328,-0.301257 0.28854,-1.003308 0.3603,-1.530553 0.20772,-1.526335 -0.0706,-3.135184 -0.78385,-4.531324 -0.0718,-0.140555 -0.0745,-0.1571 -0.0301,-0.184847 0.12865,-0.08036 1.97914,-1.07425 1.99105,-1.069379 0.008,0.0029 0.0821,0.144875 0.16584,0.315123 z m -15.85767,-0.188949 0.37221,2.737032 -0.74548,-0.298099 -0.74548,-0.298099 -0.0344,0.08469 c -0.0495,0.121971 -0.19378,0.638072 -0.25348,0.906936 -0.24878,1.120291 -0.22091,2.421982 0.0762,3.558005 0.13805,0.527891 0.38377,1.172925 0.61176,1.60588 0.0556,0.105636 0.0647,0.144287 0.0375,0.159699 -0.15537,0.08816 -1.90508,1.037437 -1.95054,1.058236 -0.0569,0.02606 -0.0612,0.02105 -0.18468,-0.217059 -0.17249,-0.332553 -0.43936,-0.96926 -0.56626,-1.350954 -0.69738,-2.097777 -0.69249,-4.347072 0.0139,-6.415927 l 0.093,-0.272188 -0.74797,-0.31304 -0.74797,-0.313039 2.17653,-1.6861 c 1.19709,-0.927349 2.18696,-1.685403 2.19971,-1.684546 0.0128,7.26e-4 0.19069,1.233209 0.39541,2.738571 z m 10.77981,12.852796 c 0.29412,0.54244 0.5402,0.999105 0.54686,1.014808 0.0284,0.06693 -1.0658,0.557002 -1.67376,0.749624 -0.85349,0.270418 -1.52266,0.400294 -2.39348,0.464521 -1.31262,0.09682 -2.67724,-0.07929 -3.93057,-0.507266 l -0.27218,-0.09295 -0.31323,0.748419 -0.31322,0.748427 -1.67765,-2.168015 c -0.9227,-1.192402 -1.68697,-2.181764 -1.69836,-2.198571 -0.0137,-0.02026 0.75807,-0.136352 2.28246,-0.343435 1.26675,-0.172085 2.50492,-0.340801 2.75147,-0.374914 l 0.4483,-0.062 -0.2998,0.749661 -0.29981,0.749653 0.22678,0.07472 c 1.27875,0.421398 2.75247,0.49258 4.06255,0.196231 0.58359,-0.132011 1.35825,-0.40881 1.79977,-0.643088 0.10708,-0.05684 0.20019,-0.10078 0.20692,-0.09769 0.007,0.0029 0.25285,0.449435 0.54695,0.991881 z"
         style="fill:#ffffff;fill-opacity:1;stroke-width:0.0244629" />
      <rect
         y="164.58311"
         x="192.01028"
         height="17.343618"
         width="39.526989"
         id="rect6385"
         style="fill:#e3e3e3;fill-opacity:1;stroke:#000000;stroke-width:0.293482;stroke-miterlimit:4;stroke-dasharray:none;stroke-dashoffset:10;stroke-opacity:1" />
      <circle
         r="4.9570885"
         cy="175.65497"
         cx="199.88029"
         id="circle6387"
         style="fill:#fcfa00;fill-opacity:0.51;stroke:#000000;stroke-width:0.239379;stroke-miterlimit:4;stroke-dasharray:none;stroke-dashoffset:10;stroke-opacity:1" />
      <rect
         y="100.82201"
         x="206.71901"
         height="59.772915"
         width="17.225273"
         id="rect6389"
         style="fill:#e3e3e3;fill-opacity:1;stroke:none;stroke-width:0.243778;stroke-miterlimit:4;stroke-dasharray:none;stroke-dashoffset:10;stroke-opacity:1" />
      <path
         id="path6391"
         style="fill:#e3e3e3;fill-opacity:1;stroke:#000000;stroke-width:0.266494;stroke-linecap:butt;stroke-linejoin:miter;stroke-miterlimit:4;stroke-dasharray:none;stroke-opacity:1"
         d="m 223.79725,155.40606 v 1.31627 m -0.018,-6.38965 v 1.31626 m 0,-6.37787 v 1.31627 m -0.018,-6.37788 v 1.31627 m -0.012,-6.37788 v 1.31627 m 0.006,-6.38613 v 1.31627 m -0.006,-6.37787 v 1.31626 m -0.017,-6.38167 v 1.31627 m 0,-6.37382 v 1.31626 m 0,-6.38612 v 1.31627 m -0.012,-6.37787 v 1.31626 m 0,54.51727 h 15.82653 v -4.01027 h -15.82653 m 0,-1.05375 h 15.82653 v -4.01027 h -15.82653 m 0,-1.05376 h 15.82653 v -4.01028 h -15.82653 m 0,-1.05376 h 15.82653 v -4.01027 h -15.82653 m 0,-1.05376 h 15.82653 v -4.01027 h -15.82653 m 0,-1.05377 h 15.82653 v -4.01027 h -15.82653 m 0,-1.05376 h 15.82653 v -4.01027 h -15.82653 m 0,-1.05377 h 15.82653 V 121.137 h -15.82653 m 0,-16.24587 h 15.82653 v -4.01029 h -15.82653 m 0,19.2024 h 15.82653 v -4.01027 h -15.82653 m 0,-1.05376 h 15.82653 v -4.01028 h -15.82653 m 0,-1.05376 h 15.82653 v -4.01027 h -15.82643 m -17.07336,49.40835 v 1.31627 m 0.018,-6.38965 v 1.31626 m 0,-6.37787 v 1.31626 m 0.018,-6.37787 v 1.31627 m 0.012,-6.37788 v 1.31627 m -0.006,-6.38613 v 1.31627 m 0.006,-6.37787 v 1.31626 m 0.017,-6.38167 v 1.31627 m 0,-6.37382 v 1.31626 m 0,-6.38612 v 1.31627 m 0.012,-6.37788 v 1.31627 m 0,54.51727 h -15.82664 v -4.01026 h 15.82653 m 0,-1.05376 h -15.82653 v -4.01026 h 15.82653 m 0,-1.05377 h -15.82653 v -4.01028 h 15.82653 m 0,-1.05376 h -15.82653 v -4.01027 h 15.82653 m 0,-1.05376 h -15.82653 v -4.01027 h 15.82653 m 0,-1.05377 h -15.82653 v -4.01027 h 15.82653 m 0,-1.05376 h -15.82653 v -4.01027 h 15.82653 m 0,-1.05377 h -15.82653 v -4.01027 h 15.82653 m 0,-16.24587 h -15.82653 v -4.01029 h 15.82653 m 0,19.2024 h -15.82653 v -4.01027 h 15.82653 m 0,-1.05377 h -15.82653 v -4.01027 h 15.82653 m 0,-1.05376 h -15.82653 v -4.01027 h 15.82653 m -0.005,-5.06955 7.32172,0.0216 m 2.37156,-0.004 15.21441,0.0557 m 0,59.64386 h -25.70455"
         inkscape:connector-curvature="0"
         sodipodi:nodetypes="cccccccccccccccccccccccccccccccccccccccccccccccccccccccccccccccccccccccccccccccccccccccccccccccccccccccccccccccccccccccccccccccccccccccccccccccccc" />
      <path
         inkscape:connector-curvature="0"
         d="m 216.24802,85.839507 v 24.901513 h 3.97503 v -9.89142 h 2.67498 v -5.444803 h -2.67498 v -4.09771 h 2.67498 v -5.4448 h -2.67498 v -0.0228 z"
         style="fill:#a7a9ad;fill-opacity:1;stroke:#000000;stroke-width:0.196552;stroke-miterlimit:4;stroke-dasharray:none;stroke-dashoffset:10;stroke-opacity:1"
         id="path6393" />
      <path
         id="path6395"
         style="fill:#a7a9ad;fill-opacity:1;stroke:#000000;stroke-width:0.196552;stroke-miterlimit:4;stroke-dasharray:none;stroke-dashoffset:10;stroke-opacity:1"
         d="m 214.11983,85.83992 v 24.90151 h -3.97503 v -9.89142 h -2.67497 v -5.4448 h 2.67497 V 91.3075 h -2.67497 v -5.4448 h 2.67497 v -0.0228 z"
         inkscape:connector-curvature="0" />
      <path
         id="rect6397"
         style="fill:#a7a9ad;fill-opacity:1;stroke:#000000;stroke-width:0.128722;stroke-miterlimit:4;stroke-dasharray:none;stroke-dashoffset:10;stroke-opacity:1"
         d="m 220.33852,110.43991 v 66.8876 h -10.43396 l 0.0209,-66.99208"
         inkscape:connector-curvature="0"
         sodipodi:nodetypes="cccc" />
      <circle
         r="1.7559659"
         cy="167.5302"
         cx="194.80344"
         id="circle6399"
         style="fill:#000000;fill-opacity:1;stroke:none;stroke-width:0.223358;stroke-miterlimit:4;stroke-dasharray:none;stroke-dashoffset:10;stroke-opacity:1" />
      <path
         sodipodi:nodetypes="cccccccccccccccccc"
         inkscape:connector-curvature="0"
         d="m 211.72416,191.71021 h 6.62354 l -1.03007,5.36116 -4.06875,0.0573 z m 5.58013,5.38615 c 0,0.33606 -1.11688,0.65863 -2.27216,0.65863 -4.96991,-0.54966 2.50678,-2.24785 2.27216,-0.65863 z m -10.99005,-10.36412 17.3702,0.0501 0.0656,5.7271 -17.43578,0.10028 z m 3.13082,-9.14395 h 11.17413 v 9.9963 h -11.17413 z"
         style="fill:#ffd700;fill-opacity:1;stroke:none;stroke-width:0.276253;stroke-miterlimit:4;stroke-dasharray:none;stroke-dashoffset:10;stroke-opacity:1"
         id="path6401" />
      <rect
         y="183.15465"
         x="209.86026"
         height="4.4767647"
         width="10.323286"
         id="rect6403"
         style="fill:#ffd700;fill-opacity:1;stroke:none;stroke-width:0.276161;stroke-miterlimit:4;stroke-dasharray:none;stroke-dashoffset:10;stroke-opacity:1" />
      <rect
         ry="0.24359855"
         y="-9.2756891"
         x="214.22208"
         height="191.52571"
         width="1.9164124"
         id="rect6383"
         style="fill:#ff0000;fill-opacity:0.7;stroke:none;stroke-width:0.575011;stroke-miterlimit:4;stroke-dasharray:none;stroke-dashoffset:10;stroke-opacity:0.7" />
    </g>
    <text
       id="text4446"
       y="180.86037"
       x="-8.2834587"
       style="font-style:normal;font-weight:normal;font-size:15.5186px;line-height:1.25;font-family:sans-serif;letter-spacing:0px;word-spacing:0px;fill:#000000;fill-opacity:1;stroke:none;stroke-width:0.387965"
       xml:space="preserve"><tspan
         id="tspan4448"
         style="text-align:center;text-anchor:middle;stroke-width:0.387965"
         y="180.86037"
         x="-8.2834597"
         sodipodi:role="line">Bowden Tube</tspan><tspan
         id="tspan6497"
         style="text-align:center;text-anchor:middle;stroke-width:0.387965"
         y="200.25862"
         x="-8.2834606"
         sodipodi:role="line">Extrusion</tspan></text>
    <text
       xml:space="preserve"
       style="font-style:normal;font-weight:normal;font-size:15.5186px;line-height:1.25;font-family:sans-serif;letter-spacing:0px;word-spacing:0px;fill:#000000;fill-opacity:1;stroke:none;stroke-width:0.387965"
       x="220.84537"
       y="180.86037"
       id="text6503"><tspan
         sodipodi:role="line"
         x="220.84537"
         y="180.86037"
         style="text-align:center;text-anchor:middle;stroke-width:0.387965"
         id="tspan6499">Direct Drive</tspan><tspan
         sodipodi:role="line"
         x="220.84537"
         y="200.25862"
         style="text-align:center;text-anchor:middle;stroke-width:0.387965"
         id="tspan6501">Extrusion</tspan></text>
    <path
       style="fill:none;stroke:#000000;stroke-width:0.529167;stroke-linecap:butt;stroke-linejoin:miter;stroke-miterlimit:4;stroke-dasharray:none;stroke-opacity:1;marker-end:url(#marker1276)"
       d="m -109.96816,125.74065 44.619978,-0.0796"
       id="path1646"
       inkscape:connector-curvature="0"
       sodipodi:nodetypes="cc" />
    <text
       xml:space="preserve"
       style="font-style:normal;font-weight:normal;font-size:10.5833px;line-height:1.25;font-family:sans-serif;letter-spacing:0px;word-spacing:0px;fill:#000000;fill-opacity:1;stroke:none;stroke-width:0.264583"
       x="-136.9985"
       y="128.53409"
       id="text1652"><tspan
         sodipodi:role="line"
         x="-136.9985"
         y="128.53409"
         style="font-size:9.87778px;text-align:center;text-anchor:middle;stroke-width:0.264583"
         id="tspan1650">Filament</tspan></text>
    <path
       sodipodi:nodetypes="cc"
       inkscape:connector-curvature="0"
       id="path388"
       d="m -115.35037,67.532301 23.342643,-0.0796"
       style="fill:none;stroke:#000000;stroke-width:0.529167;stroke-linecap:butt;stroke-linejoin:miter;stroke-miterlimit:4;stroke-dasharray:none;stroke-opacity:1;marker-end:url(#marker1158)" />
    <text
       id="text392"
       y="67.206085"
       x="-137.50002"
       style="font-style:normal;font-weight:normal;font-size:10.5833px;line-height:1.25;font-family:sans-serif;letter-spacing:0px;word-spacing:0px;fill:#000000;fill-opacity:1;stroke:none;stroke-width:0.264583"
       xml:space="preserve"><tspan
         id="tspan390"
         style="font-size:9.87778px;text-align:center;text-anchor:middle;stroke-width:0.264583"
         y="67.206085"
         x="-137.50002"
         sodipodi:role="line">Extruder</tspan><tspan
         style="font-size:9.87778px;text-align:center;text-anchor:middle;stroke-width:0.264583"
         y="80.435211"
         x="-137.50002"
         sodipodi:role="line"
         id="tspan394"
         dy="-4.8800001">Motor</tspan></text>
    <path
       style="fill:none;stroke:#000000;stroke-width:0.529167;stroke-linecap:butt;stroke-linejoin:miter;stroke-miterlimit:4;stroke-dasharray:none;stroke-opacity:1;marker-end:url(#marker1028)"
       d="m -113.99375,-7.0238655 50.934185,0.058889"
       id="path396"
       inkscape:connector-curvature="0"
       sodipodi:nodetypes="cc" />
    <text
       xml:space="preserve"
       style="font-style:normal;font-weight:normal;font-size:10.5833px;line-height:1.25;font-family:sans-serif;letter-spacing:0px;word-spacing:0px;fill:#000000;fill-opacity:1;stroke:none;stroke-width:0.264583"
       x="-137.50002"
       y="-6.8772497"
       id="text402"><tspan
         id="tspan400"
         sodipodi:role="line"
         x="-137.50002"
         y="-6.8772497"
         style="font-size:9.87778px;text-align:center;text-anchor:middle;stroke-width:0.264583">Filament</tspan><tspan
         sodipodi:role="line"
         x="-137.50002"
         y="6.3518748"
         style="font-size:9.87778px;text-align:center;text-anchor:middle;stroke-width:0.264583"
         id="tspan406"
         dy="-4.0499964">Tube</tspan></text>
    <path
       style="fill:none;stroke:#000000;stroke-width:0.529167;stroke-linecap:butt;stroke-linejoin:miter;stroke-miterlimit:4;stroke-dasharray:none;stroke-opacity:1;marker-end:url(#marker1656)"
       d="m 269.69219,-5.2393346 -19.79642,0.1568149"
       id="path408"
       inkscape:connector-curvature="0"
       sodipodi:nodetypes="cc" />
    <text
       xml:space="preserve"
       style="font-style:normal;font-weight:normal;font-size:10.5833px;line-height:1.25;font-family:sans-serif;letter-spacing:0px;word-spacing:0px;fill:#000000;fill-opacity:1;stroke:none;stroke-width:0.264583"
       x="295.05072"
       y="-5.7908978"
       id="text414"><tspan
         sodipodi:role="line"
         x="295.05072"
         y="-5.7908978"
         style="font-size:9.87778px;text-align:center;text-anchor:middle;stroke-width:0.264583"
         id="tspan410">Extruder</tspan><tspan
         dy="-4.7800002"
         id="tspan412"
         sodipodi:role="line"
         x="295.05072"
         y="7.4382267"
         style="font-size:9.87778px;text-align:center;text-anchor:middle;stroke-width:0.264583">Motor</tspan></text>
    <path
       sodipodi:nodetypes="cc"
       inkscape:connector-curvature="0"
       id="path416"
       d="m 268.79383,-41.135635 -44.61998,-0.0796"
       style="fill:none;stroke:#000000;stroke-width:0.529167;stroke-linecap:butt;stroke-linejoin:miter;stroke-miterlimit:4;stroke-dasharray:none;stroke-opacity:1;marker-end:url(#marker1654)" />
    <text
       id="text420"
       y="-37.22855"
       x="293.49533"
       style="font-style:normal;font-weight:normal;font-size:10.5833px;line-height:1.25;font-family:sans-serif;letter-spacing:0px;word-spacing:0px;fill:#000000;fill-opacity:1;stroke:none;stroke-width:0.264583"
       xml:space="preserve"><tspan
         id="tspan418"
         style="font-size:9.87778px;text-align:center;text-anchor:middle;stroke-width:0.264583"
         y="-37.22855"
         x="293.49533"
         sodipodi:role="line">Filament</tspan></text>
    <path
       style="fill:none;stroke:#000000;stroke-width:0.529167;stroke-linecap:butt;stroke-linejoin:miter;stroke-miterlimit:4;stroke-dasharray:none;stroke-opacity:1;marker-end:url(#marker1388)"
       d="m 32.081347,81.775982 21.67037,-0.09395"
       id="path2741"
       inkscape:connector-curvature="0" />
    <text
       xml:space="preserve"
       style="font-style:normal;font-weight:normal;font-size:10.5833px;line-height:1.25;font-family:sans-serif;letter-spacing:0px;word-spacing:0px;fill:#000000;fill-opacity:1;stroke:none;stroke-width:0.264583"
       x="19.843285"
       y="80.317116"
       id="text2787"><tspan
         sodipodi:role="line"
         id="tspan2783"
         x="19.843285"
         y="80.317116"
         style="font-size:9.87778px;text-align:center;text-anchor:middle;stroke-width:0.264583">Heat</tspan><tspan
         sodipodi:role="line"
         x="19.843285"
         y="93.546242"
         style="font-size:9.87778px;text-align:center;text-anchor:middle;stroke-width:0.264583"
         id="tspan2785"
         dx="0"
         dy="-4.4299955">Sink</tspan></text>
    <path
       inkscape:connector-curvature="0"
       id="path493"
       d="m 172.83973,81.775982 21.67038,-0.09395"
       style="fill:none;stroke:#000000;stroke-width:0.529167;stroke-linecap:butt;stroke-linejoin:miter;stroke-miterlimit:4;stroke-dasharray:none;stroke-opacity:1;marker-end:url(#marker2845-1)" />
    <text
       id="text499"
       y="80.317116"
       x="158.48495"
       style="font-style:normal;font-weight:normal;font-size:10.5833px;line-height:1.25;font-family:sans-serif;letter-spacing:0px;word-spacing:0px;fill:#000000;fill-opacity:1;stroke:none;stroke-width:0.264583"
       xml:space="preserve"><tspan
         style="font-size:9.87778px;text-align:center;text-anchor:middle;stroke-width:0.264583"
         y="80.317116"
         x="158.48495"
         id="tspan495"
         sodipodi:role="line">Heat</tspan><tspan
         dy="-4.5300002"
         dx="0"
         id="tspan497"
         style="font-size:9.87778px;text-align:center;text-anchor:middle;stroke-width:0.264583"
         y="93.546242"
         x="158.48495"
         sodipodi:role="line">Sink</tspan></text>
    <text
       id="text2287"
       y="127.45867"
       x="126.81029"
       style="font-style:normal;font-weight:normal;font-size:10.5833px;line-height:1.25;font-family:sans-serif;letter-spacing:0px;word-spacing:0px;fill:#000000;fill-opacity:1;stroke:none;stroke-width:0.264583"
       xml:space="preserve"><tspan
         style="font-size:9.87778px;text-align:center;text-anchor:middle;stroke-width:0.264583"
         y="127.45867"
         x="126.81029"
         id="tspan2283"
         sodipodi:role="line">Heater</tspan><tspan
         dy="-3.9799979"
         id="tspan2285"
         style="font-size:9.87778px;text-align:center;text-anchor:middle;stroke-width:0.264583"
         y="140.68779"
         x="126.81029"
         sodipodi:role="line">Block</tspan></text>
    <path
       inkscape:connector-curvature="0"
       id="path2289"
       d="M 109.34293,128.28419 97.009328,128.17211"
       style="fill:none;stroke:#000000;stroke-width:0.529167;stroke-linecap:butt;stroke-linejoin:miter;stroke-miterlimit:4;stroke-dasharray:none;stroke-opacity:1;marker-end:url(#marker1506)" />
    <text
       xml:space="preserve"
       style="font-style:normal;font-weight:normal;font-size:10.5833px;line-height:1.25;font-family:sans-serif;letter-spacing:0px;word-spacing:0px;fill:#000000;fill-opacity:1;stroke:none;stroke-width:0.264583"
       x="290.85202"
       y="127.45867"
       id="text1964"><tspan
         sodipodi:role="line"
         id="tspan1960"
         x="290.85202"
         y="127.45867"
         style="font-size:9.87778px;text-align:center;text-anchor:middle;stroke-width:0.264583">Heater</tspan><tspan
         sodipodi:role="line"
         x="290.85202"
         y="140.68779"
         style="font-size:9.87778px;text-align:center;text-anchor:middle;stroke-width:0.264583"
         id="tspan1962"
         dy="-3.9799979">Block</tspan></text>
    <path
       sodipodi:nodetypes="cc"
       style="fill:none;stroke:#000000;stroke-width:0.529167;stroke-linecap:butt;stroke-linejoin:miter;stroke-miterlimit:4;stroke-dasharray:none;stroke-opacity:1;marker-end:url(#marker1970)"
       d="m 273.3847,128.28419 -34.55661,0.12433"
       id="path1966"
       inkscape:connector-curvature="0" />
  </g>
</svg>
