<?xml version="1.0" encoding="UTF-8" standalone="no"?>
<svg
   xmlns:dc="http://purl.org/dc/elements/1.1/"
   xmlns:cc="http://creativecommons.org/ns#"
   xmlns:rdf="http://www.w3.org/1999/02/22-rdf-syntax-ns#"
   xmlns:svg="http://www.w3.org/2000/svg"
   xmlns="http://www.w3.org/2000/svg"
   xmlns:sodipodi="http://sodipodi.sourceforge.net/DTD/sodipodi-0.dtd"
   xmlns:inkscape="http://www.inkscape.org/namespaces/inkscape"
   inkscape:export-ydpi="300"
   inkscape:export-xdpi="300"
   inkscape:export-filename="C:\Users\sigma\OneDrive\Colin\Packt Books\3D Printing with OpenSCAD\Chapter 1\bed-position.png"
   width="427.36584mm"
   height="261.44778mm"
   viewBox="0 0 427.36585 261.44779"
   version="1.1"
   id="svg8"
   inkscape:version="1.0rc1 (09960d6f05, 2020-04-09)"
   sodipodi:docname="levelling-wheel.svg">
  <defs
     id="defs2" />
  <sodipodi:namedview
     id="base"
     pagecolor="#ffffff"
     bordercolor="#666666"
     borderopacity="1.0"
     inkscape:pageopacity="0.0"
     inkscape:pageshadow="2"
     inkscape:zoom="0.57150101"
     inkscape:cx="973.6103"
     inkscape:cy="427.16205"
     inkscape:document-units="mm"
     inkscape:current-layer="layer1"
     inkscape:document-rotation="0"
     showgrid="false"
     inkscape:window-width="1920"
     inkscape:window-height="1017"
     inkscape:window-x="-8"
     inkscape:window-y="-8"
     inkscape:window-maximized="1"
     inkscape:snap-global="false"
     fit-margin-top="20"
     lock-margins="true"
     fit-margin-left="20"
     fit-margin-right="20"
     fit-margin-bottom="20" />
  <metadata
     id="metadata5">
    <rdf:RDF>
      <cc:Work
         rdf:about="">
        <dc:format>image/svg+xml</dc:format>
        <dc:type
           rdf:resource="http://purl.org/dc/dcmitype/StillImage" />
        <dc:title></dc:title>
      </cc:Work>
    </rdf:RDF>
  </metadata>
  <g
     inkscape:label="Layer 1"
     inkscape:groupmode="layer"
     id="layer1"
     transform="translate(340.68359,-48.214509)">
    <text
       id="text872"
       y="289.20471"
       x="-216.32236"
       style="font-style:normal;font-weight:normal;font-size:75.5087px;line-height:1.25;font-family:sans-serif;letter-spacing:0px;word-spacing:0px;fill:#000000;fill-opacity:1;stroke:none;stroke-width:1.88773"
       xml:space="preserve"><tspan
         style="font-weight:bold;font-size:25.4px;stroke-width:1.88773"
         y="289.20471"
         x="-216.32236"
         id="tspan870"
         sodipodi:role="line">Bed Position</tspan></text>
    <g
       id="g2145">
      <path
         style="fill:none;fill-opacity:1;stroke:#000000;stroke-width:2.74693;stroke-miterlimit:4;stroke-dasharray:none;stroke-opacity:1"
         d="m -10.15282,239.82313 c 9.90108,-5.71688 20.42572,-9.28901 18.00199,-10.51107 -16.15446,-8.14516 -35.65175,-20.74072 -36.03905,-20.83642 -0.19389,-0.048 -0.23977,1.09622 -0.23977,5.97956 v 6.0388 l -1.23677,-0.0832 c -15.31865,-1.03188 -29.83219,-8.27257 -39.80296,-19.85741 l -1.08394,-1.25941 -6.65116,5.42468 c -3.65812,2.98357 -6.71478,5.48096 -6.79255,5.54977 -0.34264,0.30311 4.85284,5.83953 8.47821,9.03456 12.46637,10.98657 28.54322,17.66297 44.79884,18.6041 l 2.19872,0.12739 0.0483,6.09226 c 0.0266,3.35076 0.10899,6.09196 0.18322,6.09155 0.0742,-3.6e-4 7.73281,-4.98009 18.13694,-10.39513 z M 27.01277,218.9539 c 2.09589,-1.76161 6.87399,-6.61544 8.7841,-8.92327 10.27296,-12.41203 16.37136,-27.68893 17.27352,-43.27136 l 0.12723,-2.19871 6.11093,-0.0483 c 5.61536,-0.0444 6.10143,-0.0731 5.9938,-0.35354 -0.23089,-0.60168 -20.7135,-35.96861 -20.83109,-35.96861 -0.13265,0 -20.7373,35.63966 -20.83231,36.03336 -0.0486,0.20136 1.02561,0.24547 5.97955,0.24547 h 6.03882 l -0.0833,1.23677 c -0.82666,12.27256 -5.5774,23.9731 -13.58328,33.45419 -1.64078,1.94314 -4.39759,4.73762 -6.21225,6.29719 l -1.32232,1.13642 5.51184,6.74231 c 3.03151,3.70826 5.53064,6.76346 5.5536,6.7893 0.0229,0.0259 0.69396,-0.50121 1.49111,-1.17121 z M -82.83768,174.79041 c 5.68816,-9.84623 10.36876,-18.01049 10.40134,-18.14282 0.048,-0.195 -1.08627,-0.24061 -5.98329,-0.24061 h -6.04253 l 0.0844,-1.14515 c 0.16776,-2.27973 0.64348,-5.76114 1.0821,-7.9191 2.5372,-12.48299 9.5733,-24.29318 19.32871,-32.44361 l 0.72352,-0.60448 -5.51685,-6.74843 c -3.03426,-3.71163 -5.53563,-6.76957 -5.55859,-6.79542 -0.11865,-0.13358 -3.28073,2.73383 -5.7903,5.25076 -5.95056,5.96804 -10.40637,12.17622 -14.15012,19.71501 -4.38175,8.82354 -7.05199,18.79091 -7.60831,28.4001 l -0.12739,2.19872 c -3.99064,-0.31107 -8.24816,0.24673 -12.18454,0.23364 2.70338,6.05357 20.6977,36.04006 20.85617,36.09436 0.079,0.0271 4.79759,-8.00677 10.48573,-17.85297 z M 28.4992,116.07123 c 3.70826,-3.03151 6.76345,-5.53063 6.7893,-5.55361 0.13356,-0.11869 -2.73384,-3.28072 -5.25077,-5.79029 C 24.06971,98.776769 17.86151,94.320945 10.32273,90.577203 1.46715,86.179548 -8.43328,83.52725 -18.07736,82.968897 l -2.19872,-0.127294 -0.0483,-6.092277 c -0.0266,-3.350751 -0.10997,-6.092274 -0.18537,-6.092274 -0.28557,0 -36.04517,20.721737 -36.04517,20.887212 0,0.173565 35.72944,20.888396 36.02881,20.888396 0.0871,0 0.1584,-2.7131 0.1584,-6.02909 v -6.0291 l 1.14516,0.0843 c 8.00369,0.58899 14.7003,2.40542 21.84975,5.92663 6.83937,3.36851 13.13726,8.22508 17.99324,13.87538 l 1.13642,1.32231 z"
         id="path882"
         inkscape:connector-curvature="0"
         sodipodi:nodetypes="cscscsscscsccssccssccssssscssscscsscsscccscsssssccsccsssssccsssscssscs" />
      <path
         style="opacity:0.51282;fill:#a0a0a0;fill-opacity:1;stroke:#a0a0a0;stroke-width:0.265;stroke-miterlimit:4;stroke-dasharray:none;stroke-opacity:1"
         d="m -30.71672,203.76288 c -2.23927,-0.33396 -3.32299,-0.97121 -5.55358,-3.26565 -3.08054,-3.16871 -4.3636,-3.70467 -9.28708,-3.87938 l -3.72816,-0.13229 -1.43121,-0.96424 c -2.56191,-1.72602 -6.49319,-5.45439 -7.83618,-7.43173 -0.58313,-0.85857 -0.70006,-1.40879 -0.89473,-4.21047 -0.20772,-2.98932 -0.29705,-3.36747 -1.23288,-5.21914 -0.7983,-1.57954 -1.36626,-2.29079 -2.72047,-3.40681 -2.5708,-2.11861 -3.13485,-2.67699 -3.58659,-3.55055 -0.63883,-1.23536 -1.41643,-5.58744 -1.60383,-8.97625 -0.1609,-2.90966 -0.13528,-3.14115 0.4978,-4.49792 0.36709,-0.78671 1.08063,-1.87211 1.58566,-2.41199 0.50502,-0.53988 1.29349,-1.82085 1.75214,-2.8466 0.70425,-1.57503 0.8339,-2.18509 0.8339,-3.92375 0,-1.13231 -0.18833,-2.76837 -0.41851,-3.63569 -0.24778,-0.93361 -0.36189,-2.08051 -0.2797,-2.8113 0.33544,-2.98287 5.39666,-10.63436 7.83717,-11.84814 0.51196,-0.25462 1.70474,-0.61608 2.65063,-0.80324 3.92309,-0.77626 6.71658,-2.90247 8.55559,-6.51192 0.51207,-1.00504 1.29865,-2.16655 1.74795,-2.58114 1.72891,-1.59529 8.92533,-3.99667 11.92146,-3.97807 1.52789,0.01 2.04021,0.1671 4.59139,1.41255 l 2.87161,1.40188 2.68464,-0.13923 c 2.2293,-0.11561 2.99878,-0.27714 4.53673,-0.95235 3.18283,-1.39736 5.54803,-1.00636 11.64166,1.92453 3.44759,1.65821 4.42455,2.57538 5.40026,5.06977 1.68979,4.31996 3.92421,6.34429 8.48046,7.68311 2.84404,0.83571 4.86463,3.37776 7.44822,9.37046 1.23671,2.86857 1.35037,4.61004 0.4487,6.87469 -0.45469,1.14198 -0.5828,2.02472 -0.59519,4.10104 -0.0184,3.07694 0.3336,4.22936 2.09299,6.85306 0.78673,1.17323 1.19909,2.11105 1.32238,3.00753 0.1976,1.43668 -0.36317,5.26712 -1.19895,8.18967 -0.33438,1.16926 -0.41779,1.86166 -0.24507,2.03437 -0.27883,1.36048 -1.10706,2.08959 -1.90825,2.88997 -0.47995,0.48503 -1.72628,1.42895 -2.76963,2.0976 -3.17767,2.03643 -4.83004,4.68279 -5.24341,8.39759 -0.37785,3.39563 -1.49458,4.91301 -6.22105,8.45297 -4.22839,3.16693 -5.34372,3.51383 -9.31579,2.89754 -3.48053,-0.54002 -6.61641,0.5244 -9.60042,3.25871 -2.42012,2.2176 -2.79977,2.3301 -7.73206,2.29111 -2.29663,-0.0181 -4.771,-0.12179 -5.4986,-0.2303 z m 8.33407,-13.42929 c 1.78994,-0.89447 1.79251,-1.08516 0.1192,-8.85925 -1.53541,-7.13337 -1.87115,-8.19076 -2.75007,-8.66114 -1.69684,-0.90812 -2.44328,0.10289 -5.55646,7.52588 -1.46316,3.4887 -2.66028,6.71709 -2.66028,7.17421 0,1.77842 1.33735,2.57984 5.02708,3.01251 3.07244,0.36029 4.83113,0.30221 5.82053,-0.19221 z M -8.55746,186.089 c 4.46504,-2.71069 5.96882,-4.53426 5.1753,-6.27586 -0.19031,-0.41767 -2.504,-2.41713 -5.50972,-4.76139 -5.57538,-4.34843 -6.745,-5.15429 -7.48322,-5.15582 -0.78169,-0.002 -1.77391,1.19725 -1.77391,2.14338 0,0.80892 3.73208,13.32321 4.27694,14.34129 0.35449,0.66236 1.78867,1.26482 2.60222,1.09311 0.3638,-0.0768 1.58438,-0.6999 2.71239,-1.38471 z m -31.68291,-1.75082 c 0.81557,-0.53439 7.27469,-12.81063 7.27469,-13.82633 0,-1.20003 -0.6691,-1.93983 -1.75446,-1.93983 -1.20666,0 -13.33224,6.06939 -14.11587,7.06562 -0.99356,1.26311 -0.73302,2.38914 1.04023,4.49576 0.86573,1.02849 2.38378,2.54677 3.37344,3.37395 1.58656,1.32609 1.90438,1.48767 2.68725,1.3662 0.48834,-0.0758 1.16096,-0.31669 1.49472,-0.53537 z M 2.98347,172.60692 c 0.91915,-0.87091 2.30213,-5.04974 2.57241,-7.77285 0.17125,-1.72536 0.15968,-1.76903 -0.71907,-2.71486 l -0.89312,-0.9613 -5.95312,0.26295 c -3.27422,0.14463 -6.6286,0.26499 -7.45418,0.26747 -1.22491,0.004 -1.65081,0.13054 -2.3151,0.6895 -0.92163,0.7755 -1.02086,1.49988 -0.34964,2.55249 0.2636,0.41338 3.01538,2.36912 6.41475,4.55908 6.66513,4.29385 7.2386,4.49942 8.69707,3.11752 z m -47.5905,-6.67661 c 3.85467,-1.57096 6.66965,-2.86974 6.945,-3.20431 0.66086,-0.803 0.58154,-1.88789 -0.19111,-2.61376 -0.51728,-0.48596 -2.04824,-0.93839 -7.31857,-2.16278 -3.66545,-0.85155 -7.04597,-1.54827 -7.51228,-1.54827 -2.0204,0 -2.92471,1.75078 -2.63942,5.11 0.30964,3.64587 0.84236,5.79196 1.60493,6.46552 1.15452,1.01976 2.12011,0.80289 9.11145,-2.0464 z m 21.43506,-2.87083 c 1.03822,-0.54671 1.84742,-1.89924 1.84656,-3.08642 -10e-4,-1.92344 -1.96357,-3.50182 -3.91514,-3.14937 -1.4227,0.25695 -2.69804,1.70503 -2.69804,3.06348 0,1.34814 0.60833,2.49412 1.66649,3.13931 1.05905,0.64575 1.9191,0.6549 3.10013,0.033 z m 19.1202,-8.02477 c 4.88793,-0.60571 7.03977,-0.9782 7.59241,-1.31428 1.05901,-0.64402 1.29511,-1.98718 0.66394,-3.77709 -0.7342,-2.08206 -2.73823,-5.96542 -3.44133,-6.66852 -0.83726,-0.83727 -2.40761,-0.85775 -3.4646,-0.0452 -1.06588,0.81937 -9.07244,8.0313 -9.95756,8.96927 -1.30198,1.37974 -0.68997,3.64274 0.99219,3.6688 0.43656,0.007 3.86329,-0.36808 7.61495,-0.83298 z m -31.15084,-1.92879 c 0.75086,-0.75086 0.77479,-0.91974 0.29354,-2.07104 -0.47107,-1.12694 -8.51791,-11.74768 -9.16173,-12.09224 -1.84606,-0.98799 -3.53774,0.28262 -6.42352,4.82469 -1.61163,2.53662 -1.81192,3.367 -1.13012,4.68546 0.45481,0.8795 0.58324,0.93316 8.20772,3.42904 6.24732,2.04506 7.24453,2.19367 8.21411,1.22409 z m 17.66442,-4.52712 c 0.41258,-0.15832 8.89438,-9.17627 9.90636,-10.53256 1.62128,-2.1729 0.17788,-3.85863 -5.31694,-6.20959 -1.99898,-0.85526 -2.80473,-1.07707 -3.46364,-0.95345 -1.217,0.22831 -2.26764,1.21997 -2.41171,2.27632 -0.0663,0.48641 -0.49786,3.56328 -0.95894,6.8375 -0.97231,6.90444 -0.97984,7.07191 -0.36054,8.01708 0.35203,0.53726 0.68444,0.71417 1.34192,0.71417 0.48068,0 1.04925,-0.0673 1.26349,-0.14947 z m -9.66679,-1.15401 0.77431,-0.77432 0.34063,-7.37079 c 0.30716,-6.64663 0.29929,-7.45072 -0.08,-8.18425 -0.72188,-1.39596 -1.59557,-1.56101 -4.72103,-0.89183 -5.18765,1.1107 -6.95735,2.09771 -6.95735,3.8803 0,0.8532 0.57671,1.94315 3.48786,6.59191 3.91902,6.25821 4.41024,6.94417 5.20176,7.26398 0.90088,0.364 1.13711,0.30173 1.95384,-0.515 z m -28.37557,-15.84334 c -0.0815,-0.0815 -0.29496,-1.6e-4 -0.47443,0.18066 -0.25937,0.2613 -0.22897,0.29169 0.14811,0.14811 0.26094,-0.0994 0.40778,-0.24731 0.32632,-0.32877 z m 3.56487,-0.58395 c 0.27922,-0.18303 0.12235,-0.20978 -0.52916,-0.0902 -1.1411,0.20939 -1.35634,0.35984 -0.50712,0.35445 0.35167,-0.002 0.818,-0.12112 1.03628,-0.26421 z m 31.0224,-9.9773 c -0.47295,-0.0587 -1.24685,-0.0587 -1.71979,0 -0.47295,0.0587 -0.086,0.10672 0.85989,0.10672 0.94588,0 1.33284,-0.048 0.8599,-0.10672 z m 1.71428,-0.23303 c -0.0879,-0.0879 -0.31613,-0.0973 -0.50712,-0.0209 -0.21107,0.0845 -0.14838,0.14716 0.15985,0.15985 0.27891,0.0115 0.43518,-0.0511 0.34727,-0.13896 z m 1.05833,-0.26458 c -0.0879,-0.0879 -0.31613,-0.0973 -0.50712,-0.0209 -0.21107,0.0845 -0.14837,0.14715 0.15985,0.15985 0.27892,0.0115 0.43519,-0.0511 0.34727,-0.13897 z m -21.09501,-0.36932 c 0.21828,-0.14106 0.27781,-0.25648 0.13229,-0.25648 -0.14552,0 -0.44317,0.11542 -0.66145,0.25648 -0.21829,0.14107 -0.27782,0.25648 -0.1323,0.25648 0.14552,0 0.44318,-0.11541 0.66146,-0.25648 z m 22.75417,-0.26458 c 0.21828,-0.14107 0.27781,-0.25648 0.13229,-0.25648 -0.14552,0 -0.44318,0.11541 -0.66146,0.25648 -0.21828,0.14106 -0.27781,0.25648 -0.13229,0.25648 0.14552,0 0.44317,-0.11542 0.66146,-0.25648 z m -19.12166,-0.9536 c -0.0879,-0.0879 -0.31612,-0.0973 -0.50712,-0.0209 -0.21106,0.0845 -0.14837,0.14716 0.15986,0.15986 0.27891,0.0115 0.43518,-0.0511 0.34726,-0.13897 z m 1.05834,-0.26459 c -0.0879,-0.0879 -0.31613,-0.0973 -0.50712,-0.0209 -0.21107,0.0845 -0.14838,0.14716 0.15985,0.15985 0.27891,0.0115 0.43518,-0.0511 0.34727,-0.13896 z m 1.05833,-0.26458 c -0.0879,-0.0879 -0.31613,-0.0973 -0.50712,-0.0209 -0.21107,0.0845 -0.14837,0.14716 0.15985,0.15985 0.27892,0.0115 0.43519,-0.0511 0.34727,-0.13896 z m 2.2595,-0.27828 c -0.17913,-0.0725 -0.53632,-0.0769 -0.79375,-0.01 -0.25743,0.0671 -0.11087,0.12638 0.3257,0.13177 0.43656,0.005 0.64718,-0.0495 0.46805,-0.12197 z"
         id="path896"
         inkscape:connector-curvature="0"
         sodipodi:nodetypes="ssscsssssssssssscssscsscssssssscsssccssssscssssssssssscssssssssssssssscscssssssssssssscsssssssssscsssssssscssscssscccscssssccsscssscssssssssssssssssssssssssssssssssssssssssssssss" />
      <text
         xml:space="preserve"
         style="font-style:normal;font-weight:normal;font-size:59.3377px;line-height:1.25;font-family:sans-serif;letter-spacing:0px;word-spacing:0px;fill:#ffffff;fill-opacity:1;stroke:#000000;stroke-width:1.7817;stroke-miterlimit:4;stroke-dasharray:none;stroke-opacity:1"
         x="-68.226334"
         y="169.07358"
         id="text902"><tspan
           sodipodi:role="line"
           id="tspan900"
           x="-68.226334"
           y="169.07358"
           style="font-weight:bold;font-size:23.756px;fill:#ffffff;fill-opacity:1;stroke:#000000;stroke-width:1.7817;stroke-miterlimit:4;stroke-dasharray:none;stroke-opacity:1">DOWN</tspan></text>
      <path
         sodipodi:nodetypes="ssscsssssssssssscssscsscssssssscsssccssssscssssssssssscssssssssssssssscscssssssssssssscsssssssssscsssssssscssscssscccscssssccsscssscssssssssssssssssssssssssssssssssssssssssssssss"
         inkscape:connector-curvature="0"
         id="path24"
         d="m -235.10008,202.6938 c -2.23927,-0.33396 -3.32299,-0.97121 -5.55358,-3.26565 -3.08054,-3.16871 -4.3636,-3.70467 -9.28708,-3.87938 l -3.72816,-0.13229 -1.43121,-0.96424 c -2.56191,-1.72602 -6.49319,-5.45439 -7.83618,-7.43173 -0.58313,-0.85857 -0.70006,-1.40879 -0.89473,-4.21047 -0.20772,-2.98932 -0.29705,-3.36747 -1.23288,-5.21914 -0.7983,-1.57954 -1.36626,-2.29079 -2.72047,-3.40681 -2.5708,-2.11861 -3.13485,-2.67699 -3.58659,-3.55055 -0.63883,-1.23536 -1.41643,-5.58744 -1.60383,-8.97625 -0.1609,-2.90966 -0.13528,-3.14115 0.4978,-4.49792 0.36709,-0.78671 1.08063,-1.87211 1.58566,-2.41199 0.50502,-0.53988 1.29349,-1.82085 1.75214,-2.8466 0.70425,-1.57503 0.8339,-2.18509 0.8339,-3.92375 0,-1.13231 -0.18833,-2.76837 -0.41851,-3.63569 -0.24778,-0.93361 -0.36189,-2.08051 -0.2797,-2.8113 0.33544,-2.98287 5.39666,-10.63436 7.83717,-11.84814 0.51196,-0.25462 1.70474,-0.61608 2.65063,-0.80324 3.92309,-0.77626 6.71658,-2.90247 8.55559,-6.51192 0.51207,-1.00504 1.29865,-2.16655 1.74795,-2.58114 1.72891,-1.59529 8.92533,-3.99667 11.92146,-3.97807 1.52789,0.01 2.04021,0.1671 4.59139,1.41255 l 2.87161,1.40188 2.68464,-0.13923 c 2.2293,-0.11561 2.99878,-0.27714 4.53673,-0.95235 3.18283,-1.39736 5.54803,-1.00636 11.64166,1.92453 3.44759,1.65821 4.42455,2.57538 5.40026,5.06977 1.68979,4.31996 3.92421,6.34429 8.48046,7.68311 2.84404,0.83571 4.86463,3.37776 7.44822,9.37046 1.23671,2.86857 1.35037,4.61004 0.4487,6.87469 -0.45469,1.14198 -0.5828,2.02472 -0.59519,4.10104 -0.0184,3.07694 0.3336,4.22936 2.09299,6.85306 0.78673,1.17323 1.19909,2.11105 1.32238,3.00753 0.1976,1.43668 -0.36317,5.26712 -1.19895,8.18967 -0.33438,1.16926 -0.41779,1.86166 -0.24507,2.03437 -0.27883,1.36048 -1.10706,2.08959 -1.90825,2.88997 -0.47995,0.48503 -1.72628,1.42895 -2.76963,2.0976 -3.17767,2.03643 -4.83004,4.68279 -5.24341,8.39759 -0.37785,3.39563 -1.49458,4.91301 -6.22105,8.45297 -4.22839,3.16693 -5.34372,3.51383 -9.31579,2.89754 -3.48053,-0.54002 -6.61641,0.5244 -9.60042,3.25871 -2.42012,2.2176 -2.79977,2.3301 -7.73206,2.29111 -2.29663,-0.0181 -4.771,-0.12179 -5.4986,-0.2303 z m 8.33407,-13.42929 c 1.78994,-0.89447 1.79251,-1.08516 0.1192,-8.85925 -1.53541,-7.13337 -1.87115,-8.19076 -2.75007,-8.66114 -1.69684,-0.90812 -2.44328,0.10289 -5.55646,7.52588 -1.46316,3.4887 -2.66028,6.71709 -2.66028,7.17421 0,1.77842 1.33735,2.57984 5.02708,3.01251 3.07244,0.36029 4.83113,0.30221 5.82053,-0.19221 z m 13.82519,-4.24459 c 4.46504,-2.71069 5.96882,-4.53426 5.1753,-6.27586 -0.19031,-0.41767 -2.504,-2.41713 -5.50972,-4.76139 -5.57538,-4.34843 -6.745,-5.15429 -7.48322,-5.15582 -0.78169,-0.002 -1.77391,1.19725 -1.77391,2.14338 0,0.80892 3.73208,13.32321 4.27694,14.34129 0.35449,0.66236 1.78867,1.26482 2.60222,1.09311 0.3638,-0.0768 1.58438,-0.6999 2.71239,-1.38471 z m -31.68291,-1.75082 c 0.81557,-0.53439 7.27469,-12.81063 7.27469,-13.82633 0,-1.20003 -0.6691,-1.93983 -1.75446,-1.93983 -1.20666,0 -13.33224,6.06939 -14.11587,7.06562 -0.99356,1.26311 -0.73302,2.38914 1.04023,4.49576 0.86573,1.02849 2.38378,2.54677 3.37344,3.37395 1.58656,1.32609 1.90438,1.48767 2.68725,1.3662 0.48834,-0.0758 1.16096,-0.31669 1.49472,-0.53537 z m 43.22384,-11.73126 c 0.91915,-0.87091 2.30213,-5.04974 2.57241,-7.77285 0.17125,-1.72536 0.15968,-1.76903 -0.71907,-2.71486 l -0.89312,-0.9613 -5.95312,0.26295 c -3.27422,0.14463 -6.6286,0.26499 -7.45418,0.26747 -1.22491,0.004 -1.65081,0.13054 -2.3151,0.6895 -0.92163,0.7755 -1.02086,1.49988 -0.34964,2.55249 0.2636,0.41338 3.01538,2.36912 6.41475,4.55908 6.66513,4.29385 7.2386,4.49942 8.69707,3.11752 z m -47.5905,-6.67661 c 3.85467,-1.57096 6.66965,-2.86974 6.945,-3.20431 0.66086,-0.803 0.58154,-1.88789 -0.19111,-2.61376 -0.51728,-0.48596 -2.04824,-0.93839 -7.31857,-2.16278 -3.66545,-0.85155 -7.04597,-1.54827 -7.51228,-1.54827 -2.0204,0 -2.92471,1.75078 -2.63942,5.11 0.30964,3.64587 0.84236,5.79196 1.60493,6.46552 1.15452,1.01976 2.12011,0.80289 9.11145,-2.0464 z m 21.43506,-2.87083 c 1.03822,-0.54671 1.84742,-1.89924 1.84656,-3.08642 -0.001,-1.92344 -1.96357,-3.50182 -3.91514,-3.14937 -1.4227,0.25695 -2.69804,1.70503 -2.69804,3.06348 0,1.34814 0.60833,2.49412 1.66649,3.13931 1.05905,0.64575 1.9191,0.6549 3.10013,0.033 z m 19.1202,-8.02477 c 4.88793,-0.60571 7.03977,-0.9782 7.59241,-1.31428 1.05901,-0.64402 1.29511,-1.98718 0.66394,-3.77709 -0.7342,-2.08206 -2.73823,-5.96542 -3.44133,-6.66852 -0.83726,-0.83727 -2.40761,-0.85775 -3.4646,-0.0452 -1.06588,0.81937 -9.07244,8.0313 -9.95756,8.96927 -1.30198,1.37974 -0.68997,3.64274 0.99219,3.6688 0.43656,0.007 3.86329,-0.36808 7.61495,-0.83298 z m -31.15084,-1.92879 c 0.75086,-0.75086 0.77479,-0.91974 0.29354,-2.07104 -0.47107,-1.12694 -8.51791,-11.74768 -9.16173,-12.09224 -1.84606,-0.98799 -3.53774,0.28262 -6.42352,4.82469 -1.61163,2.53662 -1.81192,3.367 -1.13012,4.68546 0.45481,0.8795 0.58324,0.93316 8.20772,3.42904 6.24732,2.04506 7.24453,2.19367 8.21411,1.22409 z m 17.66442,-4.52712 c 0.41258,-0.15832 8.89438,-9.17627 9.90636,-10.53256 1.62128,-2.1729 0.17788,-3.85863 -5.31694,-6.20959 -1.99898,-0.85526 -2.80473,-1.07707 -3.46364,-0.95345 -1.217,0.22831 -2.26764,1.21997 -2.41171,2.27632 -0.0663,0.48641 -0.49786,3.56328 -0.95894,6.8375 -0.97231,6.90444 -0.97984,7.07191 -0.36054,8.01708 0.35203,0.53726 0.68444,0.71417 1.34192,0.71417 0.48068,0 1.04925,-0.0673 1.26349,-0.14947 z m -9.66679,-1.15401 0.77431,-0.77432 0.34063,-7.37079 c 0.30716,-6.64663 0.29929,-7.45072 -0.08,-8.18425 -0.72188,-1.39596 -1.59557,-1.56101 -4.72103,-0.89183 -5.18765,1.1107 -6.95735,2.09771 -6.95735,3.8803 0,0.8532 0.57671,1.94315 3.48786,6.59191 3.91902,6.25821 4.41024,6.94417 5.20176,7.26398 0.90088,0.364 1.13711,0.30173 1.95384,-0.515 z m -28.37557,-15.84334 c -0.0815,-0.0815 -0.29496,-1.6e-4 -0.47443,0.18066 -0.25937,0.2613 -0.22897,0.29169 0.14811,0.14811 0.26094,-0.0994 0.40778,-0.24731 0.32632,-0.32877 z m 3.56487,-0.58395 c 0.27922,-0.18303 0.12235,-0.20978 -0.52916,-0.0902 -1.1411,0.20939 -1.35634,0.35984 -0.50712,0.35445 0.35167,-0.002 0.818,-0.12112 1.03628,-0.26421 z m 31.0224,-9.9773 c -0.47295,-0.0587 -1.24685,-0.0587 -1.71979,0 -0.47295,0.0587 -0.086,0.10672 0.85989,0.10672 0.94588,0 1.33284,-0.048 0.8599,-0.10672 z m 1.71428,-0.23303 c -0.0879,-0.0879 -0.31613,-0.0973 -0.50712,-0.0209 -0.21107,0.0845 -0.14838,0.14716 0.15985,0.15985 0.27891,0.0115 0.43518,-0.0511 0.34727,-0.13896 z m 1.05833,-0.26458 c -0.0879,-0.0879 -0.31613,-0.0973 -0.50712,-0.0209 -0.21107,0.0845 -0.14837,0.14715 0.15985,0.15985 0.27892,0.0115 0.43519,-0.0511 0.34727,-0.13897 z m -21.09501,-0.36932 c 0.21828,-0.14106 0.27781,-0.25648 0.13229,-0.25648 -0.14552,0 -0.44317,0.11542 -0.66145,0.25648 -0.21829,0.14107 -0.27782,0.25648 -0.1323,0.25648 0.14552,0 0.44318,-0.11541 0.66146,-0.25648 z m 22.75417,-0.26458 c 0.21828,-0.14107 0.27781,-0.25648 0.13229,-0.25648 -0.14552,0 -0.44318,0.11541 -0.66146,0.25648 -0.21828,0.14106 -0.27781,0.25648 -0.13229,0.25648 0.14552,0 0.44317,-0.11542 0.66146,-0.25648 z m -19.12166,-0.9536 c -0.0879,-0.0879 -0.31612,-0.0973 -0.50712,-0.0209 -0.21106,0.0845 -0.14837,0.14716 0.15986,0.15986 0.27891,0.0115 0.43518,-0.0511 0.34726,-0.13897 z m 1.05834,-0.26459 c -0.0879,-0.0879 -0.31613,-0.0973 -0.50712,-0.0209 -0.21107,0.0845 -0.14838,0.14716 0.15985,0.15985 0.27891,0.0115 0.43518,-0.0511 0.34727,-0.13896 z m 1.05833,-0.26458 c -0.0879,-0.0879 -0.31613,-0.0973 -0.50712,-0.0209 -0.21107,0.0845 -0.14837,0.14716 0.15985,0.15985 0.27892,0.0115 0.43519,-0.0511 0.34727,-0.13896 z m 2.2595,-0.27828 c -0.17913,-0.0725 -0.53632,-0.0769 -0.79375,-0.01 -0.25743,0.0671 -0.11087,0.12638 0.3257,0.13177 0.43656,0.005 0.64718,-0.0495 0.46805,-0.12197 z"
         style="opacity:0.51282;fill:#a0a0a0;fill-opacity:1;stroke:#a0a0a0;stroke-width:0.265;stroke-miterlimit:4;stroke-dasharray:none;stroke-opacity:1" />
      <path
         sodipodi:nodetypes="cscscsscscsccssccssccssssscssscscsscsscccscsssssccsccsssssccsssscssscs"
         inkscape:connector-curvature="0"
         id="path863"
         d="m -243.84852,238.75405 c -9.90109,-5.71688 -20.42573,-9.28901 -18.00199,-10.51107 16.15445,-8.14516 35.65175,-20.74072 36.03904,-20.83642 0.1939,-0.048 0.23977,1.09622 0.23977,5.97956 v 6.0388 l 1.23678,-0.0832 c 15.31864,-1.03188 29.83218,-8.27257 39.80295,-19.85741 l 1.08394,-1.25941 6.65116,5.42468 c 3.65812,2.98357 6.71478,5.48096 6.79255,5.54977 0.34264,0.30311 -4.85284,5.83953 -8.47821,9.03456 -12.46637,10.98657 -28.54322,17.66297 -44.79884,18.6041 l -2.19871,0.12739 -0.0483,6.09226 c -0.0266,3.35076 -0.109,6.09196 -0.18323,6.09155 -0.0742,-3.6e-4 -7.7328,-4.98009 -18.13694,-10.39513 z m -37.16559,-20.86923 c -2.09589,-1.76161 -6.87399,-6.61544 -8.78411,-8.92327 -10.27295,-12.41203 -16.37135,-27.68893 -17.27351,-43.27136 l -0.12724,-2.19871 -6.11092,-0.0483 c -5.61536,-0.0444 -6.10143,-0.0731 -5.9938,-0.35354 0.23089,-0.60168 20.7135,-35.96861 20.83108,-35.96861 0.13266,0 20.73731,35.63966 20.83232,36.03336 0.0486,0.20136 -1.02562,0.24547 -5.97956,0.24547 h -6.03881 l 0.0833,1.23677 c 0.82666,12.27256 5.5774,23.9731 13.58328,33.45419 1.64078,1.94314 4.39758,4.73762 6.21225,6.29719 l 1.32232,1.13642 -5.51185,6.74231 c -3.0315,3.70826 -5.53063,6.76346 -5.55359,6.7893 -0.0229,0.0259 -0.69396,-0.50121 -1.49111,-1.17121 z m 109.85044,-44.16349 c -5.68816,-9.84623 -10.36876,-18.01049 -10.40134,-18.14282 -0.048,-0.195 1.08627,-0.24061 5.98329,-0.24061 h 6.04253 l -0.0844,-1.14515 c -0.16776,-2.27973 -0.64348,-5.76114 -1.0821,-7.9191 -2.5372,-12.48299 -9.5733,-24.29318 -19.32871,-32.44361 l -0.72352,-0.60448 5.51685,-6.74843 c 3.03426,-3.71163 5.53563,-6.769571 5.55859,-6.795421 0.11865,-0.133573 3.28073,2.733831 5.7903,5.250761 5.95056,5.96804 10.40637,12.17622 14.15012,19.71501 4.38175,8.82354 7.05199,18.79091 7.60831,28.4001 l 0.12739,2.19872 c 3.99064,-0.31107 8.24816,0.24673 12.18454,0.23364 -2.70338,6.05357 -20.6977,36.04006 -20.85617,36.09436 -0.079,0.0271 -4.79759,-8.00677 -10.48573,-17.85297 z m -111.33687,-58.71918 c -3.70826,-3.03151 -6.76346,-5.53063 -6.78931,-5.55361 -0.13356,-0.11869 2.73384,-3.28072 5.25078,-5.79029 5.96802,-5.950559 12.17622,-10.406383 19.715,-14.150125 8.85558,-4.397655 18.756,-7.049953 28.40009,-7.608306 l 2.19871,-0.127294 0.0483,-6.092277 c 0.0266,-3.350751 0.10997,-6.092274 0.18538,-6.092274 0.28557,0 36.04516,20.721737 36.04516,20.887212 0,0.173565 -35.72943,20.888394 -36.0288,20.888394 -0.0871,0 -0.1584,-2.7131 -0.1584,-6.02909 v -6.0291 l -1.14516,0.08428 c -8.00369,0.588996 -14.7003,2.40542 -21.84975,5.92663 -6.83937,3.36851 -13.13727,8.22508 -17.99324,13.87538 l -1.13643,1.32231 z"
         style="fill:none;fill-opacity:1;stroke:#000000;stroke-width:2.74693;stroke-miterlimit:4;stroke-dasharray:none;stroke-opacity:1" />
      <text
         id="text936"
         y="167.82469"
         x="-248.05331"
         style="font-style:normal;font-weight:normal;font-size:59.3377px;line-height:1.25;font-family:sans-serif;letter-spacing:0px;word-spacing:0px;fill:#ffffff;fill-opacity:1;stroke:#000000;stroke-width:1.7817;stroke-miterlimit:4;stroke-dasharray:none;stroke-opacity:1"
         xml:space="preserve"><tspan
           style="font-weight:bold;font-size:23.756px;fill:#ffffff;fill-opacity:1;stroke:#000000;stroke-width:1.7817;stroke-miterlimit:4;stroke-dasharray:none;stroke-opacity:1"
           y="167.82469"
           x="-248.05331"
           id="tspan934"
           sodipodi:role="line">UP</tspan></text>
    </g>
  </g>
</svg>
