<?xml version="1.0" encoding="UTF-8" standalone="no"?>
<svg
   width="100%"
   height="100%"
   viewBox="0 0 600 600"
   version="1.1"
   xml:space="preserve"
   style="fill-rule:evenodd;clip-rule:evenodd;stroke-linecap:round;stroke-linejoin:round;stroke-miterlimit:1.5;"
   id="svg103"
   sodipodi:docname="ThumbsUp.svg"
   inkscape:version="1.1 (c68e22c387, 2021-05-23)"
   xmlns:inkscape="http://www.inkscape.org/namespaces/inkscape"
   xmlns:sodipodi="http://sodipodi.sourceforge.net/DTD/sodipodi-0.dtd"
   xmlns="http://www.w3.org/2000/svg"
   xmlns:svg="http://www.w3.org/2000/svg"><defs
   id="defs107">
        
        
        
        
        
        
        
        
        
        
        
        
        
        
        
        
        
        
        
        
        
        
        
        
        
        
        
        
    </defs><sodipodi:namedview
   id="namedview105"
   pagecolor="#ffffff"
   bordercolor="#666666"
   borderopacity="1.0"
   inkscape:pageshadow="2"
   inkscape:pageopacity="0.0"
   inkscape:pagecheckerboard="0"
   showgrid="false"
   inkscape:zoom="0.44370951"
   inkscape:cx="100.29084"
   inkscape:cy="212.97718"
   inkscape:window-width="1366"
   inkscape:window-height="705"
   inkscape:window-x="-8"
   inkscape:window-y="-8"
   inkscape:window-maximized="1"
   inkscape:current-layer="svg103" />
    <g
   id="g916"><g
     transform="matrix(1.09091,0,0,1.03268,-15.6364,-12.9281)"
     id="g4">
            <path
   d="M 183,243.956 C 183,226.319 169.445,212 152.75,212 H 92.25 C 75.555,212 62,226.319 62,243.956 V 486.044 C 62,503.681 75.555,518 92.25,518 h 60.5 C 169.445,518 183,503.681 183,486.044 Z"
   id="path2" />
        </g><path
     d="m 209,235.5 c 0,-6.347 -5.153,-11.5 -11.5,-11.5 h -57 c -6.347,0 -11.5,5.153 -11.5,11.5 v 23 c 0,6.347 5.153,11.5 11.5,11.5 h 57 c 6.347,0 11.5,-5.153 11.5,-11.5 z"
     id="path6" /><g
     transform="matrix(0.638677,0.505967,-0.444314,0.560853,215.655,-52.0145)"
     id="g10">
            <path
   d="M 246,157.677 C 246,147.369 239.055,139 230.5,139 h -31 c -8.555,0 -15.5,8.369 -15.5,18.677 v 159.646 c 0,10.308 6.945,18.677 15.5,18.677 l 5.389,30.109 c 8.554,0 27.93,-1.369 27.93,-11.677 z"
   id="path8" />
        </g><g
     transform="matrix(0.966201,0.257789,-0.225293,0.844406,33.8392,-45.0538)"
     id="g14">
            <path
   d="m 314.359,58.326 c 0,-3.04 7.211,-11.108 5.849,-18.093 C 318.245,30.168 307.078,21 303.25,21 L 291.793,-2.809 C 285.308,-2.809 268,27.024 268,34.445 l -2.899,41.497 0.904,52.249 c 0,7.421 7.26,-0.191 13.745,-0.191 l 28.979,27.934 c 6.485,0 7.881,-40.371 7.881,-47.792 z"
   id="path12" />
        </g><path
     d="M 399,45.75 C 399,39.265 368.735,28 362.25,28 l -12.432,-2.712 -10.703,-0.753 -11.365,0.473 -11,1.992 c -6.485,0 0.25,5.265 0.25,11.75 v 23.5 c 0,6.485 5.265,11.75 11.75,11.75 l 22.7,1.686 8.488,2.673 8.078,4.152 L 376.25,77 c 6.485,0 45.75,6.735 45.75,0.25 l -3.795,-7.904 -6.025,-8.284 -5.101,-8.25 z"
     id="path16" /><path
     d="M 428,91.25 C 428,83.385 404.615,43 405.75,72 l -29.5,3 c -3.871,0 -13.265,-0.757 -11.652,3.473 C 366.263,82.839 376,91.256 376,95.25 l 4.823,15.444 2.177,15.056 c 0,4.739 -2.675,22.19 -2.287,36.902 0.257,9.705 2.411,19.348 5.537,19.348 h 25.5 c 7.865,0 14.25,-7.385 14.25,-15.25 l 4.395,-13.939 1.605,-22.485 -1.56,-21.623 z"
     style="stroke:#000000;stroke-width:1px"
     id="path18" /><g
     transform="rotate(18.235717,418.46164,120.46164)"
     id="g22">
            <path
   d="m 440.972,157.863 c 0,-6.347 -6.125,-4.863 -12.472,-4.863 h -23 c -6.347,0 -13.4,5.779 -13.4,12.126 l -4.271,43.125 -2.164,11.662 1.977,16.283 2.158,6.904 c 0,6.347 12.158,-2.39 18.505,-2.39 l 34.744,-12.292 c 6.347,0 -2.088,-8.046 -2.088,-14.393 z"
   style="stroke:#000000;stroke-width:1px"
   id="path20" />
        </g><path
     d="M 504,195.25 C 504,188.489 473.511,181 466.75,181 h -33.5 c -6.761,0 -23.25,-2.511 -23.25,4.25 l -1,27.5 c 0,6.761 -8.511,18.25 -1.75,18.25 l 60.5,-1 c 2.724,-0.579 17.882,12.169 21.87,9.743 6.071,-3.691 18.748,-8.785 0.38,-21.993 z"
     id="path24" /><g
     transform="matrix(1.08696,0,0,1.22078,-30.3478,-76.987)"
     id="g28">
            <path
   d="m 522.88,250.239 c 0,-5.651 -26.313,-29.079 -32.66,-29.079 l -18.4,13.925 c -3.882,0 2.662,10.601 8.331,20.129 0.58,0.975 -6.209,1.939 -5.659,2.879 1.283,2.194 3.744,4.189 6.069,7.215 2.863,3.725 5.519,8.167 5.519,6.229 l 1.169,20.241 -2.429,7.604 -4.598,8.353 -5.507,4.458 -7.955,3.578 c 0,5.652 25.393,1.229 31.74,1.229 h 23 c 6.347,0 11.5,-24.248 11.5,-29.899 l -0.299,-11.476 -2.138,-9.837 z"
   style="stroke:#000000;stroke-width:0.87px"
   id="path26" />
        </g><path
     d="m 536,319.5 c 0,-5.795 8.295,-11.5 2.5,-11.5 l -61,1 c -3.259,0 2.152,2.283 5.762,7.938 2.809,4.4 3.738,12.026 3.738,14.562 l -1,23.276 1,20.724 c 0,5.795 4.705,10.5 10.5,10.5 h 21 c 5.795,0 5.5,-4.705 5.5,-10.5 l 10.252,-10.382 1.636,-13.724 1.057,-14.134 z"
     id="path30" /><g
     transform="matrix(1.07214,-6.03001,0.984559,0.175055,-286.806,2680.72)"
     id="g34">
            <path
   d="m 392,343 1.838,5.933 1.843,3.631 3.087,1.71 1.242,13.591 L 403,383 h -22 l 1.035,-43.55 1.444,6.961 1.989,5.678 2.008,2.617 1.439,-1.025 1.656,-3.923 z"
   style="fill:#0d0d0d"
   id="path32" />
        </g><g
     transform="matrix(1.41481,0.44839,-0.302116,0.953271,-80.874,-202.328)"
     id="g38">
            <path
   d="m 504.518,380.01 c 0,-2.662 3.917,-9.449 2.123,-9.449 L 500.25,381 c -1.794,0 -3.25,2.161 -3.25,4.824 v 62.352 c 0,2.663 1.456,4.824 3.25,4.824 h 6.5 c 1.794,0 0,2.662 0,0 l 6.669,-12.178 1.345,-13.069 0.311,-12.796 -1.332,-16.701 z"
   style="fill:#0d0d0d"
   id="path36" />
        </g><g
     transform="matrix(0.958233,0.203267,-0.145473,0.68578,86.243,43.1836)"
     id="g42">
            <path
   d="m 507.364,450.28 c 0,-4.406 4.743,-10.73 2.958,-12.854 C 508.202,434.902 499.246,437 495.5,437 h -25 c -3.827,0 -14.305,-2.793 -16.599,0.997 -1.841,3.042 2.889,11.077 2.889,15.37 l 3.11,17.605 -0.673,26.613 -4.789,17.221 3.562,10.728 c 0,9.64 5.601,17.466 12.5,17.466 l 21.641,5.37 c 6.899,0 16.797,-20.765 16.797,-30.405 l 1.928,-32.407 -1.697,-25.233 z"
   id="path40" />
        </g><path
     d="m 465,482.25 c 0,-4.543 -18.472,6.386 -28.332,13.047 C 430.61,499.389 415.007,503 421.75,503 l -69.5,1 c -6.761,0 -10.25,4.489 -10.25,11.25 v 24.5 c 0,6.761 3.489,13.25 10.25,13.25 l 16.555,0.544 17.7,-0.544 35.245,-1 C 466.511,542 495,512.511 495,505.75 Z"
     id="path44" /><g
     transform="rotate(11.966806,214.21298,421.63121)"
     id="g48">
            <path
   d="m 368,488.25 c 0,-2.958 10.306,-10.08 2.857,-12.09 -1.074,-0.29 9.357,-2.999 7.875,-3.162 -5.172,-0.57 -15.512,1.23 -24.885,2.093 -11.884,1.096 -22.681,1.409 -24.569,1.409 l -54.496,-3.987 -14.295,-3.081 -15.11,-2.452 -26.135,-0.141 c -6.761,0 -7.242,14.65 -7.242,21.411 l -3.349,23.165 c 0,6.761 16.755,2.707 23.516,2.707 l 57.112,11.081 33.991,1.854 33.369,-2.23 16.72,-3.559 c 6.761,0 -5.359,-1.757 -5.359,-8.518 z"
   id="path46" />
        </g><g
     transform="matrix(2,0,0,1,-200,0)"
     id="g52">
            <path
   d="m 212.5,472.5 c 0,-4.691 -11.904,-6.5 -14.25,-6.5 h -11 c -2.346,0 -4.25,3.809 -4.25,8.5 v 29 c 0,4.691 -0.596,10.5 1.75,10.5 h 11.5 c 2.346,0 3.75,-5.809 3.75,-10.5 z"
   id="path50" />
        </g><g
     transform="matrix(-0.998761,-0.0497711,0.0687982,-1.38058,908.508,856.301)"
     id="g56">
            <path
   d="m 412,328 c -11.59,0 -21,12.322 -21,27.5 0,15.178 9.41,27.5 21,27.5 -3.477,-6.417 -6.3,-16.53 -6.3,-27.5 0,-10.97 2.823,-21.083 6.3,-27.5 z"
   id="path54" />
        </g><g
     transform="matrix(-0.984145,-0.177368,0.241897,-1.34219,827.04,967.725)"
     id="g60">
            <path
   d="m 418.082,327.941 c -11.59,0 -27.082,12.381 -27.082,27.559 0,15.178 9.41,27.5 21,27.5 -3.477,-6.417 -6.3,-16.53 -6.3,-27.5 0,-10.97 8.905,-21.142 12.382,-27.559 z"
   id="path58" />
        </g><g
     transform="matrix(0.308491,-0.951227,1.1417,0.370265,-103.881,670.856)"
     id="g64">
            <path
   d="M 394.5,379 445,421 H 344 Z"
   id="path62" />
        </g><g
     transform="rotate(-80.174615,441.8762,318.8786)"
     id="g68">
            <path
   d="m 391,353 33,43 h -66 z"
   id="path66" />
        </g><g
     transform="matrix(-0.00314264,1.69444,-0.956854,-0.00177465,461.636,-434.554)"
     id="g72">
            <path
   d="m 310,91 c -9.934,0 -18,12.098 -18,27 0,14.902 8.066,27 18,27 -2.98,-6.3 -5.4,-16.229 -5.4,-27 0,-10.771 2.42,-20.7 5.4,-27 z"
   id="path70" />
        </g><g
     transform="matrix(-0.509958,0.8602,-1.15917,-0.687197,670.933,55.5907)"
     id="g76">
            <path
   d="m 187,131 c -32.563,0 -59,21.732 -59,48.5 0,26.768 20.483,65.785 53.046,65.785 C 171.277,233.968 169.3,198.847 169.3,179.5 c 0,-19.347 7.931,-37.183 17.7,-48.5 z"
   id="path74" />
        </g><g
     transform="matrix(0.938397,0.597609,-0.836183,1.31302,178.386,-164.418)"
     id="g80">
            <path
   d="m 219,47 c -18.213,0 -33,14.787 -33,33 0,11.737 4.764,26.485 14.005,32.336 5.099,3.229 15.28,8.546 21.756,8.546 C 216.297,113.182 209.1,93.164 209.1,80 c 0,-13.164 4.436,-25.3 9.9,-33 z"
   id="path78" />
        </g><g
     transform="rotate(-179.78526,266.52694,114.73745)"
     id="g84">
            <path
   d="m 126.5,41 c -14.074,0 -25.5,26.661 -25.5,59.5 0,14.271 -0.827,31.386 2.768,41.643 4.678,13.344 14.774,17.857 22.732,17.857 -4.222,-13.883 -7.65,-35.765 -7.65,-59.5 0,-23.735 3.428,-45.617 7.65,-59.5 z"
   id="path82" />
        </g><g
     transform="matrix(-0.998277,-0.0586791,0.0487189,-0.828829,748.909,270.202)"
     id="g92">
            <path
   d="M 385.443,82.868 C 363.09,82.868 346,110.437 346,143 c 0,32.563 21.847,52.705 44.2,52.705 -6.706,-13.766 -15.85,-29.169 -15.85,-52.705 0,-23.536 4.387,-46.365 11.093,-60.132 z"
   style="fill:#0d0d0d"
   id="path90" />
        </g><g
     transform="matrix(0.664672,0.598548,-0.763261,0.847581,245.144,-103.193)"
     id="g96">
            <path
   d="M 244,144.999 C 244,139.48 238.287,135 231.25,135 h -25.5 c -7.037,0 -12.75,4.48 -12.75,9.999 v 114.002 c 0,5.519 5.713,9.999 12.75,9.999 h 25.5 c 7.037,0 12.75,-4.48 12.75,-9.999 z"
   style="fill:#0d0d0d"
   id="path94" />
        </g><g
     transform="matrix(1,0,0,1.15217,-5,-41.087)"
     id="g100">
            <path
   d="M 209,234.632 C 209,228.764 203.511,224 196.75,224 h -24.5 c -6.761,0 -12.25,4.764 -12.25,10.632 v 24.736 c 0,5.868 5.489,10.632 12.25,10.632 h 24.5 c 6.761,0 12.25,-4.764 12.25,-10.632 z"
   style="fill:#0d0d0d"
   id="path98" />
        </g></g>
</svg>
